<svg xmlns="http://www.w3.org/2000/svg" id="Layer_1" viewBox="0 0 2672 1176"><defs><style>      .st0 {        fill: #221f20;      }      .st1 {        fill: #151314;      }    </style></defs><rect class="st0" width="2672" height="1176"></rect><g><path class="st1" d="M2.2,0h10.7L0,7.9V0h2.2Z"></path><path class="st1" d="M46.5,0h27.1c.8,0,1.4.2,1.9.6,0,0,.2.2.2.3,14.8,28.5,29.8,56.9,44.9,85.2,13.5,25.2,25.8,49.3,41.1,77.9,4,7.4,16,30.4,36,68.7.2.3.5.6.8.8.2,0,.4,0,.5-.2v-.2c-2.3-18.4-3.5-27.7-3.5-27.9-5.1-42.3-10.2-84.6-15.1-127-3-26.1-5.9-52.2-8.8-78.3h23c.6.2,1.1.2,1.6,0h.4c.6.2,1.1.2,1.6,0h17.1c4.7,41.3,11.7,101.5,20.9,180.8.3,2.9.8,5.7,1.1,8,3.8,35.2,7.3,62.9,13.6,113.8.4,3.1.2,5.4,1.1,7.8.1.4.4.6.8.7l209.5,58.7c.5.1,1-.1,1.2-.6L588.8,0h36c.2,0,.4.3.4.5h0c0,.1-127.8,378.2-127.8,378.2-.1.4,0,.9.5,1.1h0l283.9,79.6c.4,0,.7,0,.9-.4L924.6,47.5c0-.2,0-.5-.3-.6h0L795.4.7c0,0-.2-.2,0-.3,0,0,0,0,.2,0L796.5,0h5c1.1.2,2.1.2,3.2,0h.8l68.8.2c.6,0,1.2.1,1.7.3,43.1,14.8,82.7,28.8,119,42,31.4,11.4,70.9,25.2,106.8,38.5,14.1,5.2,42.5,15.9,85.2,31.9.4.2.8,0,1-.4h0L1226.4.8c0-.3.4-.6.8-.6h26.4c.3,0,.5.2.5.5s0,.2,0,.3h0c0,.3-.2.5-.2.6l-6.9,19.8c-.2.6,0,1.2.6,1.4l310.1,119.9c.4.2.9,0,1-.5h0l30-96.7c0-.3,0-.6-.3-.7L1476.7.6s0-.1,0-.2h0L1478.2,0h91.7c.9.1,1.8.3,2.7.7l26.1,10.5c.4.2.8,0,1-.4h0l3.2-10.1c0-.3.4-.5.7-.5h24.6c0-.1.9-.1.9-.1l.5.2c.3,0,.4.4.3.7l-120.2,387.2c0,.4-.3.8-.5,1.2l-66.2,112.5c0,.2,0,.6.2.7h0l201.2,76.4c.7.3,1.4,0,1.6-.7h0c1.5-4,12.8-34.9,34.1-92.7,1.9-5.3,5.2-8.4,9.8-9.4,2.2-.4,6.1,0,11.7,1.6,40.6,11,91.4,24.5,152.4,40.6.3,0,.6,0,.7-.4l140-436.2c.2-.7,0-1.4-.7-1.8L1841.9.6c0,0,0-.2,0-.3h0C1842,.2,1842.7,0,1842.7,0h2.1c1,.2,2,.2,3,0h2.3l66.4.2c.8,0,1.6.2,2.4.6l193.7,100.9c.5.3,1.2,0,1.5-.5,0,0,0-.2.1-.3l18.9-100.2c0-.3.3-.4.5-.4L2175.8,0h.6c.7.8.8,2.3.3,4.5-.5,2.4-.8,3.6-.8,3.6-6.7,38.2-13.8,75.9-21.3,113.1,0,.3,0,.6.3.7l117.9,56.3c.5.2,1,0,1.2-.4h0c0-.1,55.8-177,55.8-177,.1-.4.5-.7.9-.7h26.2c.2,0,.4.2.4.4h0c0,.1-59.8,188.9-59.8,188.9,0,.3,0,.6.3.8l109.8,52.5c.6.3,1.3,0,1.6-.6h0c20-42.8,37.9-84.6,56.4-126.5,6.7-15.2,15.1-34.5,25-57.8,8.3-19.4,16.5-38.6,24.8-57.8h36.5l.8.2c.3,0,.4.4.3.6h0c-29.2,68.4-49.9,116.3-62,143.7-21,47.8-35,80.2-50.4,113.1-.2.4,0,.9.4,1.1h0l230.9,110.4v48l-.3.5s-.2.1-.3,0l-241.3-115.3c-.2,0-.4,0-.5.2h0c0,.1-25.2,151.3-25.2,151.3-.1.6.3,1.2.9,1.4,29.7,10.4,56.9,26,81.8,45.1,19.5,15,36,32.9,49.3,53.7.3.5,1,.7,1.5.4,9.4-4.8,19.1-10,29.1-15.7,29.3-16.6,58.4-32.7,87.3-48.5,1.7-1,4.7-2.6,8.9-5.1,2.9-1.7,5.9-3.4,8.9-5v25.3c-.2.6-.2,1.1,0,1.6v.4c-.2.6-.2,1.1,0,1.6v20.4c-.1.8-.6,1.6-1.3,2-31.7,17.5-56.1,31.5-96.8,53.8-6.9,3.8-12.8,7.8-18.7,11.3-.5.3-.7.9-.6,1.5l1.4,5.5c.2.6.7,1.1,1.3,1.2,38.2,7.3,76.1,16,113.5,26.2.7.2,1.1.7,1.1,1.5v44.3c0,.3-.2.6-.4.8s-.4.2-.8,0c-4.3-1.3-9-2.6-14-3.9-32.1-8.3-65-15.9-98.7-22.7-.2,0-.4,0-.4.3h0c-7.9,42.7-40,69.4-75.8,89.6-7.2,4-14.4,6.4-21.7,8.4-35.7,9.9-74,9.8-110.1,2.2-.3,0-.6,0-.7.5l-26.5,107c0,.4.1.7.5.9l348.7,104.3v46.2l-91.9-27.5c-.6-.2-1.1,0-1.4.7-6.3,17.4-12.2,34.5-17.9,51.3-5.4,16.2-11,33.8-12.9,50.3-.9,8.2-.7,17.3,3.1,24.8,4.5,9,15.4,16.7,24.2,21.5,9.4,5,19.5,9.7,30.5,14.2,21.8,9,43.9,17.2,66.3,24.6v5.7h-9.7c-25.2-.2-50.3-.3-75.5,0-.9,0-2.1-.3-3.7-1-36-15.4-70.2-37.1-70.5-80.9,0-7,.5-13.6,1.6-19.8,3.7-20.9,10.2-40.7,17.4-61.6,4.8-14.1,9.5-27.1,13.9-39.2,0-.3,0-.6-.3-.7h0l-88-26.4c-.3,0-.7,0-.8.4h0l-63.1,228.3c0,.3-.3.5-.7.5l-35.1.2c-.3,0-.5-.2-.5-.5h0c0,0,65.8-238,65.8-238,.2-.7-.2-1.3-.8-1.5l-268.9-80.5c-.3,0-.7,0-.8.4h0l-57.6,319.1c0,.4-.4.7-.9.7l-34,.2c-.4,0-.7-.3-.7-.7h0c0,0,3.5-18.6,3.5-18.6,0-.3-.2-.6-.5-.7h0l-208.7-31.1c0,0-.3,0-.3.2l-11.7,50.3c0,.2-.2.3-.4.3l-43.9.3c-.2,0-.4-.2-.4-.4h0l92.9-398.4c0-.2,0-.4-.2-.4l-118.1-35.4c-.5-.2-1.1,0-1.2.7h0c0,0-62.3,433.4-62.3,433.4,0,.2-.2.4-.4.4l-34.3.2c-.3,0-.5-.2-.5-.5h0l37.4-260.1c0-.5-.3-.9-.7-1h0c-76.6.3-152.4.3-227.4,0-2.6,0-4.9-.2-7-.5-18.4-2.6-37.4-4-55.5-.6-7.7,1.4-14.3,4.1-19.9,8-15.5,10.7-17.6,36-17.9,52.9-.3,16.1,0,32,1.1,47.7,1.8,26.5,2.7,41.1,2.9,43.8.2,2.5.7,4.5,1.7,6.1,14.4,22,28.5,45,42.3,69,5.8,10.1,11.9,21.6,18.4,34.5,0,.2,0,.4-.2.5h-38.1c-.5,0-.9-.2-1.1-.7-16.6-30.6-34.3-60.1-53.3-88.3-2.1-3-3.5-5.8-3.8-9-1.3-13.8-3-35.3-5.1-64.4-1.5-21-1.7-44.3,2-65.6,0-.3,0-.6-.4-.7-21.6-7.6-43.3-14.1-65-19.7-9.9-2.5-21-4.7-33.4-6.5-11.9-1.8-23.2-2.2-34.1-1.2-17.1,1.5-31.8,8.4-43.9,20.8-6.7,6.8-12.9,15-18.6,24.7-11.1,18.7-19.6,37.1-28.3,56-3.2,6.9-7,15.8-11.5,26.7-10,24.2-20.4,49.3-31.1,75.2-.5,1.2-.8,2.5-.8,3.8l-.4,48.1c0,.5-.4.9-.9.9l-20.4.2h-2c-.9,0-1.7,0-2.3-.4-.2,0-.3-.3-.4-.5v-43.9c0-.2,0-.4-.3-.4l-236.8-89.9c-.4-.2-.9,0-1.1.5h0l-45.2,133.7c0,.3-.3.4-.6.4l-26.3.2c-.3,0-.5-.2-.5-.5v-.2l152.9-455c0-.3,0-.7-.4-.8h-.2l-284.4,2c-.9,0-1.7.6-2.1,1.4l-90.3,238.1c-.2.4,0,.9.5,1.1,33,13.6,69.7,28.4,109.9,44.3,7.8,3.1,12.5,5.5,13.3,13.7.2,2.2-.5,5.2-2.2,9.2-2.2,5.2-5,12.3-8.4,21.1-12.1,31.9-28.3,73.5-48.5,124.8,0,.2-.3.4-.5.4l-27,.2c-.2,0-.3,0-.3-.3h0c0,0,56.6-146.5,56.6-146.5.2-.4,0-.9-.5-1.1l-101.9-41.1c-.3,0-.7,0-.9.4h0l-58,152.9c-.2.5,0,1,.5,1.2,22,9.9,46.9,20.8,74.5,32.8,2.2.9,2.7,1.6,1.7,2h-2.5l-112.8-.3c-.4,0-.6-.3-.6-.7v-.3l.8-1.6c.2-.4,0-.8-.4-1h0l-138.5-61.3c-.5-.2-1,0-1.2.5v.4c0,1.4-.2,3.2-.5,5.4-3.2,22-6.2,41.4-9.3,58,0,.3-.3.6-.6.6l-.9.2h-39.4c-.8,0-1.4,0-2.1-.3-.3,0-.5-.4-.4-.7,11.4-70.3,19.9-141.9,24.7-212.3,2.6-37.6,4.6-74.3,6-110.1,0-.4-.3-.8-.7-.8-16.8-1.2-33.9-.6-51.2,1.8-27.6,3.9-53.3,9.7-81.3,16.7-24.3,6.1-42.6,10.6-55.1,13.5-20.5,4.9-41.3,8.5-62.3,11v-36.1c8.2-1.1,15.3-2.1,21.1-3.1,43.5-7.7,105.9-24.6,128.4-29.6,34.5-7.6,67.8-12.6,102.2-9.8.2,0,.3,0,.3-.3h0l1.4-33.5c0-.4-.3-.8-.7-.8-60.8-5.6-99.7-61.6-96.3-120,0-.3-.2-.5-.5-.6h-.1c-15.5,3.4-32.4,7.3-47.9,13.1-5.2,1.9-8.8,3.5-10.7,4.8-21.8,14.9-44.8,30.2-69.1,45.7-3.5,2.2-8.2,5.4-14.1,9.5-4.6,3.2-9.3,6.3-14.1,9.6v-50.6l.4-2.7c0-.3.2-.5.4-.6l63.4-41.6c.5-.3.6-.9.3-1.4h0L0,560.1v-43.5l87.1,117.1c.2.3.7.4,1.1.3,8.1-3.6,16.9-6.5,26.4-8.8,15.2-3.7,33.4-8.1,54.6-13.1,1.2-.3,2.2-1,2.8-2.1,14-24.1,35.6-42.4,62.8-50.1.5,0,.8-.6.8-1.1-1.9-28.4-4.5-53.7-8.3-87.7-5.8-51.2-12.1-105.4-19.1-162.6-.1-1-.4-1.9-.9-2.8l-39.6-74.9c-.1-.3-.5-.4-.7-.2,0,0-.1,0-.1.1-43.8,46.7-97.8,103.4-142.1,150.7-5.2,5.6-13.4,13.3-24.5,23.4v-54.8c3.6-22.7,6-39.1,7.2-49.3,0-.1,0-2.5.2-7.2,0-3.4-.9-6.5-2.5-8.9-2.2-3.3-3.8-5.8-4.8-7.6v-39.1c.2-.2.4-.3.6-.3,0,0,.1,0,.2.1,6.1,7.1,12.1,14.2,18.3,21.3,8.3,9.7,13.7,20.1,14.5,33,.3,4.1,0,9.2-.9,15.5-1.5,10.5-3,20.6-4.6,30.1,0,.3.1.5.4.6.2,0,.3,0,.4-.1l102.9-108.9c.2-.2.2-.6,0-.9-.1-.1-.3-.2-.4-.2-1.7-.1-3.2-.2-4.6-.4-14.4-1.8-55.4-6.9-123.1-15.2h-2c-1.2,0-1.7-.5-1.7-1.5v-24.8l.2-.5c0-.3.4-.4.7-.4l152,19.1c.2,0,.4-.1.5-.4v-.3L70.6,47.3c-.3-.5-.9-.7-1.4-.4h0L0,91.2v-29c0-1.4.3-2.2.8-2.5,21-13.7,39.9-25.8,56.4-36.3.3-.2.5-.7.3-1L46,0h.5ZM1399.1,110.7c0-.4,0-.9-.5-1l-159.9-61.8c-.4-.2-.9,0-1.1.5h0l-25.1,72.9c0,.4,0,.9.5,1l161.8,58c.4.2.9,0,1.1-.5h0l23.2-69h0ZM967.3,510.9c20.2-61.1,31.5-95.2,33.9-102.1,2.7-8,5.8-15.7,9.2-23,6.1-12.9,16.4-24,31.1-25.6,7.5-.8,15.2-.2,23,1.9,10.8,2.8,21.7,6.4,32.8,10.7.5.2,1.1,0,1.3-.6h0c12.7-36.2,24.7-71,35.9-104.5,1.1-3.3,1.2-5.9,2.5-8.6.9-1.8,1.7-3.8,2.4-5.9,21-60.6,34.1-98.6,39.3-113.8.2-.6,0-1.3-.7-1.5l-219.6-78.7c-.5-.2-1,0-1.1.5h0l-140.8,408.3c-.2.5,0,1.1.7,1.3h0l149.5,41.9c.3,0,.6,0,.7-.4h-.1ZM2102.3,136.3l-82.9-43.2c-.3-.2-.8,0-1,.3h0c0,0-138.4,431.3-138.4,431.3,0,.4,0,.7.4.9h0l82.8,22.1c.5,0,1.1-.2,1.3-.7,14.6-44.5,31.5-96,50.5-154.4,10.8-33.2,22.2-66,32.8-97.8,18.3-54.9,32.9-95.9,54.8-157.8,0-.3,0-.6-.3-.7h0ZM1418,492.6l67.4-114.5c0-.1.2-.3.2-.4l64.8-208.6c0-.3,0-.6-.3-.7l-125.6-48.6c-.3,0-.6,0-.7.3h0l-111.8,332.6c-.2.4,0,.9.5,1.1,31.9,11.7,65.7,24.5,101.4,38.3,2.3.9,3.6,1.2,4,.8l.2-.2h0ZM1166,256.6c0,.2,0,.5.3.6l162.8,60.4c.2,0,.5,0,.6-.3h0l37.6-111.1c0-.2,0-.5-.3-.6l-162.7-58.3c-.2,0-.5,0-.6.3h0l-37.6,109h-.1ZM2140.4,163.9c-.6-.3-1.2,0-1.5.5h0c-9.8,28.2-20.4,58.8-31.9,91.9-24.5,70.6-46,136.8-70.8,211.6-.2.6,0,1.2.7,1.4l133.7,47.9c.2,0,.5,0,.6-.2,21.1-41.4,61.4-64.7,106.2-72.8,30.7-5.5,61.3-5,91.8,1.5.7.1,1.4-.3,1.6-1h0c6.6-39,15.2-90.7,26-155.2.4-2.3-.3-3.1-2.2-4.1-99.6-47.8-151.9-72.8-156.8-75.1-2.4-1.2-33.9-16.2-94.4-45.1-1-.5-1.9-.9-2.8-1.4h-.2ZM1123.1,381.6c0,.3,0,.6.3.7l163.2,61.9c.3.1.6,0,.7-.3h0l34-100.5c0-.3,0-.6-.3-.7l-163-60.4c-.3-.1-.6,0-.7.3h0l-34.1,99h0ZM448.3,393.4l-192.1-53.8c-.2,0-.5,0-.6.3v.2c7.4,59.3,14.1,117.7,20,175.2,1.6,15.5,2.7,29.6,3.3,42.3,0,.4.3.7.6.8,14,2.8,26.7,8.4,38.1,16.8.3.2.8.2,1-.2h0l129.9-180.6c.2-.3.1-.6-.1-.8h-.2v-.2ZM940,674.2s.3,0,.5,0c24.5,0,45.8,0,63.9-.4,10.7,0,32-.3,63.9-.5,62.5-.3,109.2-.8,158.9-1,12.3,0,51-.3,116-.8,139.1-1,217.4-1.5,234.8-1.6,12.2,0,23.2,0,32.9.2.5,0,1-.3,1.2-.8l24.1-64.9c0-.3,0-.7-.4-.9h0c-21.2-7.9-33.6-12.6-37.2-13.9-28-10.5-68.3-25.7-120.7-45.6-42.5-16.1-81.8-30.6-121.4-45.7-4.7-1.8-27.9-10.5-69.6-26.2-68.5-25.8-160.5-60.5-204.1-76.8-8.1-3-15.7-5.5-23-7.4-5.5-1.5-10.4-2-14.8-1.7-7.7.6-13,15.1-15.7,21.8-5.9,14.7-12.4,36.5-17.8,52.8-6.2,18.6-12.7,37.8-19.4,57.7,0,.4,0,.8.4.9,74,26.4,120.4,42.9,139,49.4,5.8,2,19.6,7,41.1,14.8,2.7,1,4.6,1.9,5.7,2.6,9.7,6.8,5.5,22.3-6,24.1-1.9.3-5.4-.5-10.7-2.5-4.5-1.6-24.6-8.8-60.5-21.6-2.1-.7-41.2-14.7-117.2-41.8-.4,0-.8,0-.9.4h0l-43.2,128.8v.3l.2.2ZM958.3,537c0-.3,0-.7-.4-.8h0c-84-23.4-168.7-46.8-254-70.4-39.7-11-91.2-25.5-154.2-43.4-23.1-6.6-44.6-12.8-64.4-18.5-.1,0-.3,0-.4.1l-141.5,196.8c-.2.3-.2.6,0,.9,15,21.5,22,45.6,21.1,72.2,0,.7-.1,2-.4,3.9,0,.4.2.7.6.7h0l546.5-3.8c.4,0,.8-.3.9-.7l46-137h.2ZM2198.9,542.8c-20.8,59.9,34.7,133.6,123.8,164.4,89.1,30.9,178.2,7.3,199-52.6,20.8-59.9-34.7-133.6-123.8-164.4-89.1-30.9-178.2-7.3-199,52.6ZM2024.9,503.2c-3,9.3-16.2,49.7-39.7,121.3-15.4,47.1-28.9,87.5-40.4,121.2-.2.5,0,1,.6,1.2h0l343.3,102.8c.3,0,.6,0,.7-.4h0l26.4-106.3c0-.3-.1-.7-.4-.8-61.2-20.9-120-64-145.1-125.4-8.3-20.4-12.1-42.9-9.2-64.7,0-.2-.1-.5-.4-.6l-135.3-48.5c-.2,0-.4,0-.5.2h0ZM1639.5,670.7c0,.3,0,.6.3.7h.2c34,1.7,67.6,6.9,100.8,15.4,16.3,4.2,26.8,7,31.6,8.4,39.9,11.7,83.1,24.7,129.5,38.8.5.2,1.1,0,1.2-.6l53-159.7c0-.3,0-.6-.4-.7h0l-254.1-67.8c-.4-.1-.8.1-.9.5l-61.2,165h0ZM199.1,669.3c0,3.5.1,6.1.3,7.9,3.3,30.2,23.5,53.5,53.6,59.3,11.6,2.2,23.5,0,33.1-5.4,22.6-12.3,35-36.7,34.9-62.2,0-25.5-12.6-49.8-35.3-61.9-9.7-5.2-21.5-7.4-33.2-5.2-30.1,5.9-50.2,29.4-53.3,59.6-.2,1.8-.3,4.4-.2,7.9h0ZM1060.8,1104.7c4.1-9.3,7.9-18.5,11.5-27.8,8.8-22.3,17.8-44.3,27.1-66,8.2-19.1,16.9-36.8,26.1-53.2,10.9-19.3,25.4-38,44.5-50.2,11.9-7.6,25.3-12.2,40.1-13.9,15.2-1.7,31.1-1.2,47.7,1.6,32.4,5.4,65,15.4,97.6,26.3.4,0,.9,0,1.1-.5,9-19.6,23.8-32.8,44.3-39.7,18.4-6.1,37.8-6.7,56.9-5.2,9.9.8,20,2.6,29.9,2.6h226.8c.4,0,.7-.3.8-.7l21.1-146.5c0-.2,0-.3-.2-.4-28.7-7.8-57.7-12.7-86.9-14.7-19.3-1.3-37.2-1.9-53.6-1.8-178,1-361.8,2.4-536,3.6-51.1.3-85.7.8-133.9.8s-.9.3-1.1.8l-99.2,295.2c0,.3,0,.6.3.7l234.8,89.1c0,0,.3,0,.4-.2h-.1ZM582,722.4c0-.3,0-.7-.3-.8h-.2l-228.6,1.6c-.6,0-1.2.4-1.5.9-11.6,22.4-30.2,40.7-53.6,50.4-.2,0-.4.3-.4.6-.8,19.9-1.2,30.8-1.2,33,0,3.9-.7,7.6-.6,11.8,0,1.9,0,4.8-.2,8.8-.6,14.2-1.2,28-1.9,41.6-.8,16.2-1.8,33.4-2.6,51.8-.5,10.7-2.3,36.1-5.4,76.2-1.5,20-3.7,41.8-6.4,65.3,0,.6.2,1.1.8,1.4l146.6,65c.4.2,1,0,1.2-.4h0l154.4-407v-.2ZM2068.4,1120.7c.3,0,.6-.2.7-.5l49.6-274.6c0-.3-.1-.6-.4-.7l-186.1-55.7c-.3,0-.7,0-.8.4h0l-69.9,299.6c0,.3,0,.7.5.7h0l206.4,30.7h0Z"></path><path class="st1" d="M195.2,1176h-11.2c-27.6-.2-55.2-.2-82.8-.2s-8.7-.3-12.5-.9c-16.3-2.5-32.3-4.4-47.9-5.6-14-1.1-27.1-.7-39.9,5.2-.3,0-.6,0-.8,0l-.2-.2v-36c.3-.9,1.1-1.5,2.4-1.8,12-2.7,24.4-3.7,37.1-2.9,22.8,1.4,45.3,4.7,67,8,20.3,3.1,39.1,7.5,57.7,15.3,11.1,4.6,21.5,11,31.1,19v.2Z"></path></g></svg>