<svg xmlns="http://www.w3.org/2000/svg" width="50" height="50" viewBox="0 0 50 50" fill="none"><path d="M3.02979 3.02979V46.9704H46.9704" stroke="#8DC63F" stroke-width="3.13" stroke-linecap="round" stroke-linejoin="round"></path><path d="M29.1987 35.4636C29.943 36.7053 30.9308 37.7833 32.1027 38.6332L33.4951 39.6468" stroke="#8DC63F" stroke-width="3.13" stroke-linecap="round" stroke-linejoin="round"></path><path d="M8.88843 39.6469L10.2809 38.6333C11.5491 37.7241 12.5991 36.5441 13.3547 35.1788C14.1103 33.8134 14.5526 32.2971 14.6495 30.7397L15.4307 17.1102C15.5356 15.66 16.1904 14.3046 17.2611 13.3209C18.3319 12.3372 19.7379 11.7996 21.1918 11.8178H21.4594" stroke="#8DC63F" stroke-width="3.13" stroke-linecap="round" stroke-linejoin="round"></path><path d="M19.4343 39.6468L20.8268 38.6332C22.0949 37.724 23.145 36.544 23.9006 35.1787C24.6562 33.8132 25.0985 32.297 25.1954 30.7395L25.9766 17.1101C26.0814 15.6599 26.7362 14.3045 27.807 13.3208C28.8778 12.3372 30.2837 11.7995 31.7377 11.8177C33.1934 11.797 34.6018 12.3335 35.6745 13.3174C36.7475 14.3013 37.4037 15.6582 37.5085 17.1101L38.2897 30.7395C38.3856 32.2962 38.8264 33.8121 39.5802 35.1774C40.3342 36.5424 41.3823 37.723 42.6486 38.6332L44.041 39.6468" stroke="#8DC63F" stroke-width="3.13" stroke-linecap="round" stroke-linejoin="round"></path></svg>