<svg xmlns="http://www.w3.org/2000/svg" width="50" height="50" viewBox="0 0 50 50" fill="none"><path d="M24.1525 3.55078C24.2316 3.39383 24.3527 3.26193 24.5025 3.16977C24.6521 3.07761 24.8244 3.02881 25.0001 3.02881C25.1759 3.02881 25.3481 3.07761 25.4979 3.16977C25.6475 3.26193 25.7686 3.39383 25.8477 3.55078L27.8182 7.52301C27.8863 7.65917 27.9863 7.77683 28.1097 7.86593C28.2332 7.95504 28.3765 8.01292 28.5271 8.03468L32.9485 8.67328C33.1211 8.69754 33.2838 8.7694 33.418 8.8808C33.5521 8.99221 33.6525 9.13878 33.7082 9.30407C33.7627 9.46872 33.7695 9.64546 33.7275 9.81378C33.6857 9.98211 33.597 10.1351 33.4719 10.2551L30.273 13.3681C30.165 13.4723 30.0839 13.6013 30.0371 13.7439C29.99 13.8865 29.9785 14.0383 30.0035 14.1864L30.7612 18.5746C30.7899 18.7462 30.7694 18.9225 30.7024 19.0831C30.6354 19.2438 30.5245 19.3822 30.3824 19.4827C30.2392 19.5849 30.0705 19.6454 29.8951 19.6574C29.7195 19.6695 29.5442 19.6327 29.3883 19.551L25.4415 17.4927C25.3056 17.4205 25.154 17.3828 25.0001 17.3828C24.8462 17.3828 24.6947 17.4205 24.5588 17.4927L20.6217 19.551C20.4659 19.6327 20.2905 19.6695 20.115 19.6574C19.9395 19.6454 19.7708 19.5849 19.6277 19.4827C19.4855 19.3822 19.3746 19.2438 19.3076 19.0831C19.2406 18.9225 19.2202 18.7462 19.2488 18.5746L20.0065 14.1864C20.0315 14.0383 20.02 13.8865 19.973 13.7439C19.926 13.6013 19.8451 13.4723 19.737 13.3681L16.5284 10.2551C16.4032 10.1351 16.3145 9.98211 16.2727 9.81378C16.2309 9.64546 16.2376 9.46872 16.2921 9.30407C16.3477 9.13878 16.4482 8.99221 16.5824 8.8808C16.7165 8.7694 16.8791 8.69754 17.0518 8.67328L21.4731 8.03468C21.6239 8.01292 21.7671 7.95504 21.8905 7.86593C22.0139 7.77683 22.1139 7.65917 22.1821 7.52301L24.1525 3.55078Z" stroke="#8DC63F" stroke-width="3.13" stroke-linecap="round" stroke-linejoin="round"></path><path d="M13.9114 21.2895L12.2261 20.4108C12.0895 20.3396 11.9378 20.3024 11.7837 20.3024C11.6297 20.3024 11.478 20.3396 11.3414 20.4108L7.40626 22.4613C7.25017 22.5427 7.07464 22.5796 6.89895 22.5679C6.72327 22.5562 6.55421 22.4965 6.41028 22.3949C6.26816 22.2941 6.15741 22.1553 6.09072 21.9942C6.02405 21.8332 6.00417 21.6567 6.03336 21.4848L6.78914 17.0987C6.81469 16.9508 6.80365 16.7989 6.75702 16.6563C6.71038 16.5137 6.62955 16.3846 6.52159 16.2804L3.311 13.1733C3.18651 13.0528 3.09849 12.8997 3.05704 12.7315C3.0156 12.5633 3.02239 12.3868 3.07665 12.2222C3.13224 12.0569 3.23275 11.9104 3.36692 11.799C3.5011 11.6876 3.66364 11.6157 3.83633 11.5914L8.25578 10.9528C8.40682 10.9314 8.5504 10.8736 8.67421 10.7845C8.79801 10.6954 8.89837 10.5776 8.96664 10.4412L10.9391 6.46894C11.0179 6.31181 11.139 6.17977 11.2887 6.08767C11.4384 5.99556 11.6109 5.94703 11.7867 5.94751" stroke="#8DC63F" stroke-width="3.13" stroke-linecap="round" stroke-linejoin="round"></path><path d="M36.0886 21.2895L37.774 20.4089C37.9105 20.3377 38.0622 20.3005 38.2163 20.3005C38.3704 20.3005 38.5222 20.3377 38.6587 20.4089L42.5938 22.4613C42.7498 22.5427 42.9254 22.5796 43.1012 22.5679C43.2767 22.5562 43.4458 22.4965 43.5898 22.3949C43.7319 22.2941 43.8427 22.1553 43.9093 21.9942C43.9761 21.8332 43.996 21.6567 43.9667 21.4848L43.2109 17.0987C43.1853 16.9508 43.1965 16.7989 43.2431 16.6563C43.2896 16.5137 43.3705 16.3846 43.4785 16.2804L46.6891 13.1655C46.8136 13.045 46.9015 12.8919 46.9429 12.7237C46.9845 12.5555 46.9777 12.379 46.9234 12.2144C46.8677 12.0491 46.7674 11.9026 46.6332 11.7912C46.499 11.6798 46.3364 11.6079 46.1637 11.5836L41.7443 10.945C41.5933 10.9236 41.4498 10.8658 41.326 10.7767C41.2021 10.6876 41.1018 10.5698 41.0334 10.4334L39.061 6.46894C38.9823 6.31181 38.8612 6.17977 38.7114 6.08767C38.5616 5.99556 38.3892 5.94703 38.2134 5.94751" stroke="#8DC63F" stroke-width="3.13" stroke-linecap="round" stroke-linejoin="round"></path><path d="M16.9481 31.7312V33.6841C17.0234 35.9323 16.4396 38.1534 15.2686 40.0741" stroke="#8DC63F" stroke-width="3.13" stroke-linecap="round" stroke-linejoin="round"></path><path d="M33.0539 31.7312V33.6841C32.9781 35.9321 33.5611 38.1532 34.7315 40.0741" stroke="#8DC63F" stroke-width="3.13" stroke-linecap="round" stroke-linejoin="round"></path><path d="M16.9697 32.1576C18.4952 32.1472 20.0008 31.8109 21.3859 31.1713C22.7707 30.5316 24.003 29.6035 25.0001 28.449C25.9971 29.6039 27.2292 30.5323 28.6142 31.1723C29.9992 31.8123 31.5049 32.1488 33.0305 32.1595" stroke="#8DC63F" stroke-width="3.13" stroke-linecap="round" stroke-linejoin="round"></path><path d="M16.9443 31.5148C16.9443 33.6515 17.7931 35.7005 19.3038 37.2112C20.8146 38.7218 22.8636 39.5705 25.0001 39.5705C27.1366 39.5705 29.1856 38.7218 30.6964 37.2112C32.2072 35.7005 33.0559 33.6515 33.0559 31.5148C33.0559 29.3783 32.2072 27.3293 30.6964 25.8185C29.1856 24.3077 27.1366 23.459 25.0001 23.459C22.8636 23.459 20.8146 24.3077 19.3038 25.8185C17.7931 27.3293 16.9443 29.3783 16.9443 31.5148Z" stroke="#8DC63F" stroke-width="3.13" stroke-linecap="round" stroke-linejoin="round"></path><path d="M34.8563 46.9708C33.4984 45.4296 31.8 44.226 29.8959 43.4556L24.9999 46.8947L20.104 43.4634C18.2102 44.2278 16.5191 45.4202 15.1631 46.9474" stroke="#8DC63F" stroke-width="3.13" stroke-linecap="round" stroke-linejoin="round"></path></svg>