<svg xmlns="http://www.w3.org/2000/svg" width="50" height="50" viewBox="0 0 50 50" fill="none"><path d="M1.5625 37.5C1.5625 38.731 1.80499 39.9502 2.27613 41.0877C2.74727 42.225 3.43783 43.2585 4.30838 44.1292C5.17892 44.9996 6.21242 45.6902 7.34983 46.1615C8.48727 46.6325 9.70635 46.875 10.9375 46.875C12.1686 46.875 13.3877 46.6325 14.5252 46.1615C15.6626 45.6902 16.6961 44.9996 17.5666 44.1292C18.4372 43.2585 19.1277 42.225 19.5989 41.0877C20.07 39.9502 20.3125 38.731 20.3125 37.5C20.3125 36.269 20.07 35.0498 19.5989 33.9123C19.1277 32.775 18.4372 31.7415 17.5666 30.8708C16.6961 30.0004 15.6626 29.3098 14.5252 28.8385C13.3877 28.3675 12.1686 28.125 10.9375 28.125C9.70635 28.125 8.48727 28.3675 7.34983 28.8385C6.21242 29.3098 5.17892 30.0004 4.30838 30.8708C3.43783 31.7415 2.74727 32.775 2.27613 33.9123C1.80499 35.0498 1.5625 36.269 1.5625 37.5Z" stroke="#8DC63F" stroke-width="3" stroke-linecap="round" stroke-linejoin="round"></path><path d="M20.3125 37.5003V8.59393C20.3145 7.26959 19.8358 5.98955 18.9653 4.99147C18.0949 3.99339 16.8918 3.34507 15.5795 3.16691C14.2672 2.98876 12.9348 3.29284 11.8298 4.02272C10.7247 4.75262 9.92209 5.8587 9.57086 7.13559L1.89795 35.0107" stroke="#8DC63F" stroke-width="3" stroke-linecap="round" stroke-linejoin="round"></path><path d="M29.6875 37.5C29.6875 38.731 29.93 39.9502 30.401 41.0877C30.8723 42.225 31.5629 43.2585 32.4333 44.1292C33.304 44.9996 34.3375 45.6902 35.4748 46.1615C36.6123 46.6325 37.8315 46.875 39.0625 46.875C40.2935 46.875 41.5127 46.6325 42.6502 46.1615C43.7875 45.6902 44.821 44.9996 45.6917 44.1292C46.5621 43.2585 47.2527 42.225 47.724 41.0877C48.195 39.9502 48.4375 38.731 48.4375 37.5C48.4375 36.269 48.195 35.0498 47.724 33.9123C47.2527 32.775 46.5621 31.7415 45.6917 30.8708C44.821 30.0004 43.7875 29.3098 42.6502 28.8385C41.5127 28.3675 40.2935 28.125 39.0625 28.125C37.8315 28.125 36.6123 28.3675 35.4748 28.8385C34.3375 29.3098 33.304 30.0004 32.4333 30.8708C31.5629 31.7415 30.8723 32.775 30.401 33.9123C29.93 35.0498 29.6875 36.269 29.6875 37.5Z" stroke="#8DC63F" stroke-width="3" stroke-linecap="round" stroke-linejoin="round"></path><path d="M29.6875 37.5003V8.59393C29.6856 7.26959 30.1644 5.98955 31.0348 4.99147C31.9052 3.99339 33.1083 3.34507 34.4206 3.16691C35.7329 2.98876 37.0652 3.29284 38.1702 4.02272C39.2752 4.75262 40.0779 5.8587 40.4292 7.13559L48.1021 35.0044" stroke="#8DC63F" stroke-width="3" stroke-linecap="round" stroke-linejoin="round"></path><path d="M20.3125 18.75H29.6875V25H20.3125V18.75Z" stroke="#8DC63F" stroke-width="3" stroke-linecap="round" stroke-linejoin="round"></path></svg>