<svg xmlns="http://www.w3.org/2000/svg" width="50" height="50" viewBox="0 0 50 50" fill="none"><path d="M9.86499 19.4342C9.86499 20.606 9.08383 21.3872 7.91208 21.3872H4.9827C3.81095 21.3872 3.02979 20.606 3.02979 19.4342V13.5755C3.02979 12.4037 3.81095 11.6226 4.9827 11.6226H7.91208C9.08383 11.6226 9.86499 12.4037 9.86499 13.5755V19.4342Z" stroke="#8DC63F" stroke-width="3.13" stroke-miterlimit="10" stroke-linecap="round" stroke-linejoin="round"></path><path d="M6.44727 11.6226V3.02979" stroke="#8DC63F" stroke-width="3.13" stroke-miterlimit="10" stroke-linecap="round" stroke-linejoin="round"></path><path d="M6.44727 21.3872V27.246" stroke="#8DC63F" stroke-width="3.13" stroke-miterlimit="10" stroke-linecap="round" stroke-linejoin="round"></path><path d="M20.606 37.2056C20.606 38.3774 19.8248 39.1586 18.653 39.1586H15.7237C14.5519 39.1586 13.7708 38.3774 13.7708 37.2056V28.4175C13.7708 27.2458 14.5519 26.4646 15.7237 26.4646H18.653C19.8248 26.4646 20.606 27.2458 20.606 28.4175V37.2056Z" stroke="#8DC63F" stroke-width="3.13" stroke-miterlimit="10" stroke-linecap="round" stroke-linejoin="round"></path><path d="M17.1882 26.4647V20.606" stroke="#8DC63F" stroke-width="3.13" stroke-miterlimit="10" stroke-linecap="round" stroke-linejoin="round"></path><path d="M17.1882 39.1587V46.9704" stroke="#8DC63F" stroke-width="3.13" stroke-miterlimit="10" stroke-linecap="round" stroke-linejoin="round"></path><path d="M33.8857 34.4716C33.8857 35.6434 33.1046 36.4245 31.9328 36.4245H29.0035C27.8317 36.4245 27.0505 35.6434 27.0505 34.4716V26.6599C27.0505 25.4882 27.8317 24.707 29.0035 24.707H31.9328C33.1046 24.707 33.8857 25.4882 33.8857 26.6599V34.4716Z" stroke="#8DC63F" stroke-width="3.13" stroke-miterlimit="10" stroke-linecap="round" stroke-linejoin="round"></path><path d="M30.4683 36.4246V44.2362" stroke="#8DC63F" stroke-width="3.13" stroke-miterlimit="10" stroke-linecap="round" stroke-linejoin="round"></path><path d="M35.2529 14.9424L41.1117 7.91187L46.9704 14.9424" stroke="#8DC63F" stroke-width="3.13" stroke-miterlimit="10" stroke-linecap="round" stroke-linejoin="round"></path><path d="M41.1116 7.91187V38.3774" stroke="#8DC63F" stroke-width="3.13" stroke-miterlimit="10" stroke-linecap="round" stroke-linejoin="round"></path></svg>