<svg xmlns="http://www.w3.org/2000/svg" width="50" height="50" viewBox="0 0 50 50" fill="none"><path d="M16.7002 40.4278H6.93562C5.89973 40.4278 4.90626 40.0163 4.17378 39.284C3.44129 38.5514 3.02979 37.558 3.02979 36.522V6.9803C3.02979 5.94441 3.44129 4.95094 4.17378 4.21846C4.90626 3.48597 5.89973 3.07446 6.93562 3.07446H42.0881C43.1239 3.07446 44.1174 3.48597 44.8499 4.21846C45.5825 4.95094 45.994 5.94441 45.994 6.9803V19.9223" stroke="#8DC63F" stroke-width="3.13" stroke-linecap="round" stroke-linejoin="round"></path><path d="M3.02979 12.4133H45.994" stroke="#8DC63F" stroke-width="3.13" stroke-linecap="round" stroke-linejoin="round"></path><path d="M46.9704 41.9046L35.2529 46.9255V33.5344L46.9704 28.5134V41.9046Z" stroke="#8DC63F" stroke-width="3.13" stroke-linecap="round" stroke-linejoin="round"></path><path d="M23.5354 41.9046L35.2529 46.9255V33.5344L23.5354 28.5134V41.9046Z" stroke="#8DC63F" stroke-width="3.13" stroke-linecap="round" stroke-linejoin="round"></path><path d="M35.2529 23.4905L46.9704 28.5134L35.2529 33.5343L23.5354 28.5134L35.2529 23.4905Z" stroke="#8DC63F" stroke-width="3.13" stroke-linecap="round" stroke-linejoin="round"></path></svg>