<svg xmlns="http://www.w3.org/2000/svg" width="50" height="50" viewBox="0 0 50 50" fill="none"><path d="M25.0039 35.2471V46.9646" stroke="#8DC63F" stroke-width="3.13" stroke-linecap="round" stroke-linejoin="round"></path><path d="M25.0039 3.02393V14.7414" stroke="#8DC63F" stroke-width="3.13" stroke-linecap="round" stroke-linejoin="round"></path><path d="M14.7512 24.9944H3.03369" stroke="#8DC63F" stroke-width="3.13" stroke-linecap="round" stroke-linejoin="round"></path><path d="M46.9743 24.9944H35.2568" stroke="#8DC63F" stroke-width="3.13" stroke-linecap="round" stroke-linejoin="round"></path><path d="M8.89233 24.996C8.89233 27.112 9.30909 29.2069 10.1188 31.1617C10.9284 33.1164 12.1152 34.8926 13.6113 36.3887C15.1074 37.8848 16.8835 39.0716 18.8383 39.8813C20.793 40.691 22.8881 41.1075 25.0039 41.1075C27.1197 41.1075 29.2148 40.691 31.1696 39.8813C33.1243 39.0716 34.9005 37.8848 36.3964 36.3887C37.8925 34.8926 39.0793 33.1164 39.889 31.1617C40.6987 29.2069 41.1154 27.112 41.1154 24.996C41.1154 22.8802 40.6987 20.7852 39.889 18.8305C39.0793 16.8757 37.8925 15.0996 36.3964 13.6035C34.9005 12.1074 33.1243 10.9206 31.1696 10.1109C29.2148 9.30125 27.1197 8.88452 25.0039 8.88452C22.8881 8.88452 20.793 9.30125 18.8383 10.1109C16.8835 10.9206 15.1074 12.1074 13.6113 13.6035C12.1152 15.0996 10.9284 16.8757 10.1188 18.8305C9.30909 20.7852 8.89233 22.8802 8.89233 24.996Z" stroke="#8DC63F" stroke-width="3.13" stroke-linecap="round" stroke-linejoin="round"></path></svg>