<svg xmlns="http://www.w3.org/2000/svg" width="1943" height="1943" viewBox="0 0 1943 1943" fill="none"><path d="M266.51 1936.56C261.73 1935.79 256.66 1935.13 251.36 1934.51L244.69 1804.01L254.43 1784.11L397.46 1845.27C395.75 1853.89 393.34 1866.09 391.77 1874.04C386.33 1901.2 381.69 1924.17 378.26 1940.75C378.11 1941.49 377.96 1942.21 377.81 1942.89H405.31C408.69 1926.53 413.08 1904.77 418.16 1879.33C429.04 1824.89 443.1 1753.54 457.12 1682.2C458 1677.89 458.65 1674.6 459.49 1670.33L657.36 1625.39L659.11 1767.47L528.1 1767.25C523.2 1767.25 519 1770.76 518.16 1775.54L502.64 1860.88C501.55 1866.9 506.03 1872.49 512.17 1872.74L660.49 1878.96L661.29 1942.92H688.21L684.18 1619.3L801.98 1592.54C804.02 1592.1 805.99 1591.26 807.75 1590.09C834.91 1601.81 861.27 1613.02 885.71 1623.25C937.85 1645.01 982.83 1663.13 1019.05 1677.4L1250.81 1833.1C1243.15 1880.06 1253.05 1915.32 1267.78 1942.93H1308.37C1290.77 1919.15 1276.87 1891.71 1282.62 1846.36L1629.68 1942.46L1629.56 1942.93H1757.41L1708.67 1929.43C1715.53 1912.78 1728.23 1880.35 1735.62 1851.95C1788.42 1878.55 1844.62 1906.21 1942.88 1907.12V1880.27C1850.05 1879.69 1800.49 1854.57 1748.25 1828.1C1769.43 1803.31 1788.13 1774.68 1804.45 1742.44C1804.45 1742.4 1804.45 1742.37 1804.49 1742.33C1806.35 1738.61 1808.21 1734.85 1810.03 1731.05C1810.33 1730.4 1810.66 1729.74 1810.95 1729.08C1812.6 1725.65 1814.2 1722.14 1815.77 1718.6C1816.17 1717.69 1816.57 1716.78 1816.98 1715.86C1818.44 1712.54 1819.9 1709.18 1821.32 1705.78C1821.87 1704.5 1822.39 1703.23 1822.89 1701.95C1824.17 1698.81 1825.45 1695.67 1826.69 1692.49C1827.34 1690.82 1828 1689.1 1828.66 1687.41C1829.75 1684.53 1830.81 1681.68 1831.87 1678.76C1832.64 1676.68 1833.4 1674.55 1834.14 1672.44C1835.08 1669.78 1836.04 1667.14 1836.94 1664.44C1837.74 1662.03 1838.55 1659.59 1839.35 1657.14C1877.99 1673.07 1914.12 1687.81 1942.88 1698.74V1662.34C1929.26 1657.06 1914.1 1651.07 1898.03 1644.61L1899.86 1428.59C1905.99 1414.09 1911.14 1401.93 1916.36 1389.63C1920.53 1379.77 1924.84 1369.77 1928.56 1361.3C1933.61 1349.81 1938.33 1339.54 1942.88 1330.43V1289.46C1942.75 1289.62 1942.62 1289.78 1942.5 1289.95C1941.08 1291.85 1939.72 1293.86 1938.38 1295.9C1938.16 1296.26 1937.9 1296.59 1937.69 1296.92C1936.37 1298.93 1935.09 1301.04 1933.82 1303.24C1933.52 1303.68 1933.27 1304.08 1933.02 1304.55C1931.74 1306.71 1930.5 1308.93 1929.22 1311.23C1928.97 1311.74 1928.68 1312.26 1928.42 1312.76C1927.36 1314.69 1926.34 1316.7 1925.32 1318.71C1924.7 1319.95 1924.09 1321.16 1923.46 1322.39C1922.77 1323.82 1922.04 1325.35 1921.35 1326.85C1920.43 1328.67 1919.56 1330.54 1918.69 1332.44C1918.18 1333.57 1917.62 1334.74 1917.12 1335.91C1916.13 1338.06 1915.11 1340.29 1914.12 1342.56C1913.25 1344.49 1912.37 1346.61 1911.49 1348.58C1903.31 1367.39 1894.62 1388.82 1884.25 1413.65L1703.06 1346.36L1779.66 1123.33L1942.89 1122.22V1088.55L1791.24 1089.58L1824.8 991.83L1942.89 1033.01V1011.63L1831.37 972.73L1846.2 929.53C1852.41 911.49 1856.68 897.83 1860.36 888.56C1864.09 879.25 1867.19 875.13 1869.13 873.85C1870.11 873.23 1871.32 872.76 1873.29 872.68C1875.3 872.61 1878.08 872.93 1882.2 873.89C1890.45 875.79 1902.69 880.21 1919.67 886.45L1942.9 895.01V873.5L1932.16 869.54L1942.9 838.91V776.73C1942.23 778.06 1941.86 779.52 1941.83 780.99L1913.17 862.57C1902.76 858.81 1894.21 855.92 1886.73 854.21C1881.47 853 1876.35 852.38 1871.57 852.67C1866.76 853.01 1862.26 854.28 1858.21 856.88C1850.07 862.13 1845.83 870.5 1841.63 881.09C1837.4 891.63 1833.2 905.23 1827.1 922.97L1812.09 966.64L1696.23 934.84L1804.96 626.22L1942.89 674.63V652.58C1818.16 607.16 1696.48 566.76 1569.63 522.23C1569.81 520.62 1569.67 518.98 1569.27 517.41L1532.79 381.39L1908.63 273.97C1921.72 270.24 1932.88 267.35 1942.89 265.16V231.1C1929.96 233.5 1915.8 236.94 1899.39 241.62L1742.53 286.46C1733.69 253.97 1697.23 120.93 1659.83 0.03H1574.27L1509.49 38.02L1495.8 0.03H1474.35L1491.79 48.42L1479.7 55.47C1474.36 58.61 1471.85 65 1473.6 70.92L1474.55 74.13L1218.69 85.79C1218.07 59.94 1215.99 31.53 1211.59 0.03H1177.63C1198.53 143.54 1168.36 216.52 1172.68 287.86C1172.82 290.16 1173.01 292.6 1173.16 294.94L1016.76 330.91L972.83 199.1L990.76 0H963.72L960.32 37.74L931.72 0H906.37L957.66 67.6L946.34 192.99L826.43 217.75C824.17 218.22 822.12 219.46 820.66 221.29C755.48 301.9 685.01 403.96 624.13 503.22C603.43 513.03 582.79 522.86 562.2 532.76C546.65 540.21 531.2 547.69 515.72 555.18C516.15 547.08 518.2 541.2 520.65 535.83C524.45 527.32 531.68 520.89 533.28 506.03C540.11 442.93 552.05 347.75 558.52 270.8C563.37 212.74 552.31 134.89 536.42 59.02L697.41 0H638.74L532.15 39.08C529.25 25.88 526.23 12.82 523.15 0H487.99C510.52 94.26 530.55 201.51 524.96 268C523.97 279.9 522.8 292.43 521.57 305.09C501.27 276.47 484.61 242.39 471.76 211.95C431.57 116.6 406.09 58.74 379.95 0H350.45C354.29 8.63 358.1 17.18 361.92 25.79L188.45 109.63C170.67 83.38 152.63 57.12 135.22 31.82C134.82 31.23 134.45 30.69 134.05 30.1L206.82 0H136.38L118.41 7.43C116.7 4.94 114.99 2.47 113.3 0H80.6102C90.9702 15.09 101.82 30.83 113.03 47.08C153.9 106.41 198.3 171.3 233.53 227.35L51.0702 314.26C36.4702 281.66 20.5602 248.92 -0.00976562 216.35V270.09C8.77023 286.72 16.7302 303.49 24.3702 320.4L-0.00976562 324.64V351.97L35.5802 345.77C40.9802 358.18 46.3602 370.64 51.8602 383.2C64.9402 412.93 82.5002 433.85 104.78 446.51C127.08 459.22 153.13 463.42 182.55 463.06C334.16 461.23 402.7 476.2 435.45 496.22C451.81 506.22 460.03 517.14 467.33 530.47C472.29 539.59 476.64 549.97 482.12 561.07C482.16 564.32 482.33 567.68 482.74 571.18C329.17 645.92 178.17 722.1 26.5302 797.79C22.7902 799.66 13.5002 804.61 -0.00976562 811.9V850.27C22.7202 837.96 38.9002 829.24 41.5702 827.91C68.7702 814.33 95.9402 800.75 123.11 787.16L198.47 946.36L1.27023 1044.66C0.840234 1041.76 0.420234 1038.88 0.000234375 1036.03V1297.62C1.07023 1294.38 2.14023 1291.17 3.20023 1287.98C7.95023 1320.11 12.5502 1351.33 17.3702 1383.53L0.000234375 1378.44V1413.52L22.8102 1420.2C37.9602 1521.89 52.6102 1619.14 64.1502 1693.98C65.8702 1705.16 67.5102 1716.62 69.1102 1728.23C45.8502 1737.73 29.4902 1749.2 16.6802 1763.22C14.1602 1765.96 11.8202 1768.73 9.56024 1771.61L0.000234375 1760.08V1850.21C8.00023 1837.4 14.4602 1826.15 20.3702 1816.26L87.8102 1897.59C88.6902 1907.77 89.4902 1918.18 90.3002 1928.47H83.3302C53.0002 1928.4 24.0902 1928.52 0.0102344 1928.31V1942.88H305.69C292.26 1940.67 279.15 1938.55 266.52 1936.54L266.51 1936.56ZM430.72 1676.98C420.17 1730.58 410.63 1778.64 401.43 1825.01L263.3 1765.97L291.48 1708.45L430.75 1676.83C430.75 1676.9 430.71 1676.94 430.71 1676.98H430.72ZM437.87 1640.72L287.21 1674.93C286.85 1641.77 286.34 1591.28 285.64 1533.33C349.04 1520.33 382.04 1514.35 403.19 1513.68C405.96 1513.62 408.59 1513.62 411.11 1513.68C427.47 1514.19 439.19 1518.21 460.77 1524.93C453.65 1560.94 446.05 1599.13 437.87 1640.72ZM402.56 1493.53C379.01 1494.22 346.22 1500.33 285.35 1512.78C284.73 1462.17 284.07 1415.1 283.38 1380.59L339.47 1370.07C339.91 1370 340.31 1369.92 340.75 1369.82C358.31 1378.77 375.84 1387.75 393.58 1396.77C421.88 1411.16 450.03 1425.18 477.93 1438.83C475.29 1451.86 472.99 1463.14 469.68 1479.83C468.29 1486.8 466.17 1497.54 464.72 1504.99C440.99 1497.64 425.9 1492.83 402.57 1493.52L402.56 1493.53ZM263.67 1056.78L547.53 1069.86L569.62 1123.65C564.66 1143.21 559.43 1162.69 554.03 1182C487.21 1169.44 433.1 1154.9 377.09 1153.52C347.14 1152.79 316.58 1155.89 283.14 1165.03L247.53 1145.42L263.67 1056.79V1056.78ZM243.04 961.77L264.65 951L252.06 980.8L243.04 961.77ZM540.29 932.15L544.02 1049.47L267.31 1036.73L269.14 1026.76L308.5 933.72C309.23 932.05 309.67 930.29 309.81 928.47L525.87 820.78C519.11 834.33 515.32 849.55 515.32 865.7C515.32 891.15 524.73 914.41 540.29 932.15ZM1298.26 448.34L1538.02 532.5L1424.86 860.37L1262.41 815.78C1259.53 792.34 1256.68 769.23 1253.54 743.45C1243.02 657.5 1231.56 561.02 1222.18 470.1L1298.27 448.34H1298.26ZM1218.74 436.07C1214.68 394.85 1211.18 355.19 1208.51 318.93L1472.43 262.11L1488.46 319.98L1498.17 356.24L1218.73 436.06L1218.74 436.07ZM1481.21 1608.69L1371.45 1585.87L1404.67 1472.74L1483.62 1507.03C1480.08 1535.95 1480.11 1571.04 1481.21 1608.69ZM1396.93 1432.69L1283.01 1383.25C1290.79 1315.34 1293.74 1252.42 1297.17 1165.07C1315.17 1157.81 1329.96 1143.86 1339.06 1126.26L1516.19 1125.09L1396.93 1432.69ZM735.58 1273.71V1273.09L735.73 1274.81C735.69 1274.45 735.66 1274.07 735.58 1273.71V1324.58C712.61 1325.02 690.49 1324.94 670.37 1324.07C651.78 1323.27 640.9 1322.76 634.18 1321.99C627.43 1321.21 625.31 1320.6 620.86 1318.7C612.42 1315.12 596.76 1306.46 549.58 1290.18C564.7 1243.11 578.72 1195.36 591.42 1146.79L651.64 1166.48C654.34 1167.36 657.3 1167.06 659.74 1165.68L711 1136.58L773.19 1191.56C771.4 1204.45 770.05 1211.86 768.33 1216.03C766.43 1220.59 764.02 1223.26 756.65 1229.68C750.48 1235.02 744.45 1239.47 739.93 1246.74C735.55 1253.79 733.94 1263.02 735.58 1273.72V1273.71ZM515.36 1391.43C524.27 1366.39 532.89 1341.19 541.24 1315.77C586.74 1331.47 598.97 1338.67 610.37 1343.49C613.21 1344.7 616.17 1345.72 619.35 1346.56L585.28 1453.08C560.45 1441.36 535.29 1429.35 509.84 1416.97C511.37 1409.48 512.72 1403.05 513.71 1398.64C514.77 1393.85 516.08 1389.43 515.36 1391.44V1391.43ZM631.04 964.69C660.98 959.65 686.43 941.07 701 915.43L750.19 943.84C734.49 969.66 717.03 991.06 697.06 1006.28C674.61 1023.4 649.15 1033.08 618.22 1033.15C622.72 1011.6 626.95 989.88 630.86 967.93C631.05 966.87 631.11 965.78 631.05 964.69H631.04ZM709.29 1022.35C727.11 1008.77 742.59 991.38 756.47 971.3L750.69 1069.01L706.15 1116.04C706.04 1116.11 705.93 1116.19 705.85 1116.26L653.64 1145.91L596.49 1127.21C602.66 1102.78 608.46 1078.16 613.91 1053.3C650.96 1054.07 682.74 1042.57 709.28 1022.34L709.29 1022.35ZM577.8 1090.37L564.47 1057.91L561.08 950.11C573.72 958.33 588.28 963.77 603.91 965.49C596.39 1007.81 587.63 1049.39 577.8 1090.37ZM726.82 1123.57L761.4 1087.06L819.27 1135.11L784 1174.18L726.82 1123.57ZM770.96 1068.76L777.39 959.58L839.94 995.76L914.83 1077.74L867 1120.79H836.72C835.85 1120.79 834.93 1120.9 834.06 1121.15L770.96 1068.76ZM1092.87 793.47C1089.94 783.72 1083.56 777.26 1072.82 765L1050.37 739.26L1170.17 753.82L1090.06 836.78L1091.52 827.07C1093.82 811.84 1095.79 803.2 1092.88 793.47H1092.87ZM1057.63 778.25C1068.41 790.59 1072.49 795.8 1073.51 799.24C1074.54 802.71 1073.91 808.65 1071.57 824.03L1065.88 861.57L956.19 963.55L919.97 906.77C918.1 903.84 914.93 902.1 911.49 902.1C909.15 902.1 906.89 902.89 905.07 904.4L840.51 957.2L788.29 927.04L1025.26 741.22L1057.61 778.25H1057.63ZM863.01 971.15C861.92 969.91 860.6 968.89 859.18 968.01L909.06 927.19L962.41 1010.78L943.16 1058.86L863.01 971.15ZM981.76 1016.8L1049.75 979.19L1118.18 1069.3C1098.82 1082.44 1072.97 1097.57 1049.02 1114.69C1037.89 1122.64 1027.04 1131.01 1017.41 1140.13L958.29 1075.43L981.77 1016.79L981.76 1016.8ZM1068.59 1142.05C1092.36 1125.03 1119.93 1109.26 1141.73 1093.92C1146.55 1090.56 1159.81 1086.14 1174.48 1082.71C1179.08 1081.62 1183.94 1080.55 1188.73 1079.46C1188.58 1081.51 1188.51 1083.55 1188.51 1085.63C1188.51 1129.89 1221.09 1167.46 1263.29 1170.46C1262.93 1179.47 1262.56 1187.87 1262.2 1196.38C1254.13 1195.61 1245.95 1195.5 1237.74 1195.87C1205.46 1197.3 1172.16 1206.13 1139.11 1214.2C1098.44 1224.17 1058.23 1233.08 1022.49 1229.31C1021.9 1216.28 1021.42 1204.96 1020.84 1191.12C1027.93 1175.74 1045.96 1158.25 1068.6 1142.04L1068.59 1142.05ZM1268.69 1034.29C1293.93 1034.29 1315.25 1056.42 1315.25 1085.63C1315.25 1114.84 1293.93 1137.01 1268.69 1137.01C1202.89 1129.67 1208.77 1037.88 1268.69 1034.3V1034.29ZM1313.27 1015.05C1304.29 1008.62 1294.06 1004.09 1282.96 1001.97C1282.85 998.39 1282.63 994.38 1282.23 989.41C1281.16 975.69 1279.15 956.37 1276.42 932.34C1273.43 905.98 1269.45 873.23 1265.07 837.44L1413.6 878.19L1313.26 1015.05H1313.27ZM1228.19 813.27C1233.97 860.11 1239.3 903.49 1242.98 936.17C1245.72 959.98 1247.69 979.15 1248.68 992C1249.08 996.89 1249.22 1000.43 1249.3 1003.13C1228.34 1008.68 1210.78 1022.96 1199.97 1041.91C1190.84 1044.57 1178.86 1047.09 1166.85 1049.9C1156.26 1052.39 1145.67 1054.86 1135.78 1059.06L1060.56 960C1058.7 957.55 1055.81 956.09 1052.75 956.02C1050.96 955.98 1049.21 956.42 1047.64 957.26L977.13 996.26L967.27 980.85L1082.22 873.94C1082.37 873.83 1082.47 873.68 1082.62 873.58L1196.91 755.2L1228.2 813.26L1228.19 813.27ZM1029.15 716.32C1028.82 716.28 1028.5 716.25 1028.13 716.25C1026.08 716.21 1024.04 716.79 1022.33 717.96C1020.87 718.62 1019.55 719.61 1018.57 720.89L769.46 916.14L713.16 883.6C712.94 883.49 712.76 883.35 712.57 883.27C713.56 877.58 714.1 871.7 714.1 865.71C714.1 857.68 713.16 849.9 711.36 842.38C787.13 764.46 867.86 708.37 950.32 657.84L976.28 696.94C979.31 701.51 985.45 702.82 990.09 699.9L1122.27 616.83L1186.25 735.43L1029.16 716.33L1029.15 716.32ZM987.67 677.58L967.58 647.35C1010.64 621.42 1054.08 596.63 1097.47 570.85L1112.66 599.04L987.67 677.58ZM862.25 690.58L848.88 659.8L1082.61 543.32L1087.87 553.07C1012.83 597.65 936.66 639.54 862.24 690.58H862.25ZM835.45 628.9L767.89 473.38C790.09 463.19 812.44 453.08 834.86 443L898.03 597.68L835.45 628.9ZM845.34 702.37C797.07 736.58 749.64 775.15 703.82 821.3C690.24 793.66 664.38 773.18 633.45 767.19L830.78 668.81L845.34 702.37ZM693.91 865.7C693.91 873.59 692.78 881.18 690.73 888.38C688.94 890.89 687.92 893.86 687.74 896.92C675.77 925.77 647.61 945.88 614.71 945.88C570.9 945.88 535.48 910.17 535.48 865.7C535.48 835.97 551.36 810.17 574.98 796.32L584.55 791.53C593.82 787.66 604.01 785.55 614.71 785.55C658.53 785.55 693.91 821.26 693.91 865.7ZM368.87 1173.56C424.63 1173.59 478.3 1188.27 548.49 1201.53C530.78 1262.83 511.06 1323.01 489.99 1382.42C488.63 1386.25 488.49 1387.9 487.43 1392.87C486.78 1395.82 485.78 1400.61 484.92 1404.77C459.72 1392.39 434.35 1379.76 408.82 1366.76C392.13 1358.28 375.59 1349.81 359.02 1341.34C366.69 1315.63 363.73 1283.97 353.62 1253.12C344.6 1225.63 329.37 1198.64 306.62 1180.02C328.28 1175.46 348.72 1173.56 368.88 1173.56H368.87ZM524.6 1853.05L536.5 1787.43L659.38 1787.65L660.26 1858.7L524.61 1853.04L524.6 1853.05ZM659.81 1590.3L466.61 1634.19C477.09 1580.99 487.86 1526.25 496.07 1485.1C498.85 1471.22 500.63 1462.42 502.93 1451.03C565.92 1481.52 626.94 1509.86 684.92 1535.96L659.8 1590.3H659.81ZM692.93 1582.77L709.5 1547.02C725.78 1554.28 741.64 1561.29 757.29 1568.16L692.92 1582.77H692.93ZM901.94 1593.5C931.88 1593 952.51 1590.4 980.04 1589.59C980.52 1601.75 982.71 1613.62 987.75 1625.45C988.33 1626.81 988.98 1628.12 989.65 1629.43C963.43 1618.91 933.97 1606.86 901.94 1593.5ZM989.06 1514.75C986.69 1529.14 984.06 1542.76 982.24 1555.86C929.66 1557.07 907.6 1564.52 813.14 1555.75C781.88 1542.28 749.13 1527.89 714.99 1512.59C712.91 1510.69 710.24 1509.52 707.43 1509.2C673.84 1494.12 639.33 1478.38 603.74 1461.73L639.64 1349.45C646.94 1350 656.14 1350.4 669.18 1350.98C728.07 1353.57 800.81 1349.52 864.72 1345.73C883.05 1344.66 900.64 1343.65 917.08 1342.77L911.53 1431.98C910.74 1444.43 910.7 1455.02 912.96 1464.56C915.18 1474.12 920.41 1482.82 928.65 1488.47C942.42 1497.89 961.7 1500 991.17 1499.39C990.55 1504.68 989.89 1509.87 989.09 1514.77L989.06 1514.75ZM993.04 1479.07C963.65 1479.43 946.99 1476.56 940.02 1471.77C935.93 1468.99 934 1466 932.57 1459.94C931.15 1453.88 930.93 1444.9 931.66 1433.25L937.35 1341.78C955.32 1340.94 971.2 1340.42 983.4 1340.46C987.12 1340.46 990.26 1340.57 993.29 1340.68C995.22 1396.65 995.74 1442.11 993.04 1479.06V1479.07ZM988.19 1181.15C987.31 1183.31 986.91 1185.65 987.02 1187.98C988.95 1234.68 990.82 1275.98 992.27 1313.51C962.54 1312.3 916.43 1315.71 863.08 1318.85C828.53 1320.92 791.51 1322.97 755.8 1324.07V1273.1C755.8 1272.52 755.73 1271.93 755.66 1271.38C754.23 1263.28 755.11 1260.46 757.04 1257.43C758.94 1254.36 763.36 1250.57 769.86 1244.9C777.82 1238 783.52 1232.08 786.99 1223.76C790.13 1216.12 791.41 1207.25 793.16 1194.18L841.22 1140.97H870.87C873.35 1140.97 875.76 1140.03 877.62 1138.38L928.45 1092.62L995.67 1166.23C992.75 1170.94 990.23 1175.9 988.19 1181.13V1181.15ZM1143.37 1720.32C1156.19 1722.66 1167.33 1723.46 1177.26 1722.76C1189.96 1721.89 1201.18 1717.95 1209.84 1711.63C1211.77 1736.13 1216.41 1756.76 1223.79 1774.36L1143.38 1720.32H1143.37ZM1206.47 1628.59C1200.95 1654.92 1198.22 1675.66 1192.08 1682.6C1188.98 1686.03 1185.4 1688.48 1174.92 1689.21C1164.44 1689.94 1147.72 1687.93 1123.8 1681.17C1125.48 1681.65 1116.86 1678.76 1105.73 1674.64C1104.27 1674.09 1102.04 1673.26 1100.39 1672.63C1048.11 1650.5 1026.75 1631.08 1018.71 1612.23C1009.62 1590.91 1015.28 1562.58 1022.25 1520.18C1023.9 1510.09 1025.18 1499.44 1026.16 1488.23C1052.63 1475.08 1064.87 1467.23 1074.87 1464.2C1079.14 1462.89 1083.64 1462.16 1089.58 1462.05C1099.44 1461.83 1113.31 1463.29 1136.91 1466.61C1154.88 1469.13 1174.11 1472.38 1189.74 1480.3C1205.37 1488.19 1217.63 1499.76 1224.43 1522.62C1224.91 1524.27 1225.67 1525.84 1226.73 1527.19C1221.04 1557.53 1214.43 1590.73 1206.46 1628.58L1206.47 1628.59ZM1201.91 1456.29C1181.2 1445.81 1158.97 1442.52 1140.64 1439.97C1121.54 1437.27 1107.52 1435.55 1096.13 1435.18C1084.71 1434.82 1075.86 1435.76 1067.07 1438.43C1054.91 1442.11 1044.39 1448.21 1028.07 1456.86C1030.12 1404.32 1027.3 1337.68 1023.69 1256.47C1064.45 1259.98 1105.92 1250.04 1145.51 1240.36C1181.51 1231.53 1216.02 1223.02 1245.96 1222.65C1251.14 1222.62 1256.19 1222.84 1261.11 1223.31C1256.8 1318.39 1251.4 1385.46 1234.6 1483.51C1225.4 1471.27 1213.97 1462.37 1201.92 1456.27L1201.91 1456.29ZM1262.67 1776.77C1217.64 1661.93 1261.25 1545.09 1278.63 1418.01L1386.02 1464.64L1346.48 1599.2C1346.29 1599.74 1346.18 1600.33 1346.12 1600.91L1321.95 1820.77C1295.51 1810.66 1275.9 1797.8 1262.69 1776.77H1262.67ZM1475.62 1864.89L1356.18 1831.81C1351.1 1830.38 1346.21 1828.96 1341.49 1827.5L1365.2 1612.06L1482.11 1636.37C1482.7 1652.15 1483.35 1668.11 1483.94 1684.14C1486.35 1751.4 1487.01 1818.95 1475.61 1864.89H1475.62ZM1415.48 1440.77L1460.46 1324.65L1539.88 1356.12L1492.85 1474.35L1415.48 1440.76V1440.77ZM1597.29 1898.55L1495.08 1870.29C1503.77 1835.97 1505.89 1793.46 1505.63 1748.58L1614.26 1759.06L1597.28 1898.55H1597.29ZM1505.23 1721.49C1504.94 1708.85 1504.58 1696.15 1504.14 1683.41C1501.92 1621.12 1498.74 1559.4 1503.05 1515.48L1623.1 1567.58L1623.36 1567.73C1627.04 1569.19 1632.56 1571.45 1636.83 1573.17L1617.52 1732.3L1505.24 1721.49H1505.23ZM1682.47 1922.14L1623.53 1905.82L1633.32 1825.22L1710.19 1843.63C1702.7 1871.93 1688.35 1907.82 1682.47 1922.14ZM1716.76 1823.04C1716.4 1823.4 1716.11 1823.81 1715.81 1824.21L1635.77 1805.08L1662.68 1583.7C1704.34 1600.89 1760.17 1624.37 1814.43 1646.83C1790.33 1720.87 1757.76 1779.7 1716.76 1823.04ZM1879.65 1433.46L1877.89 1636.45C1863.14 1630.47 1848.17 1624.36 1832.83 1618.01C1758.23 1587.16 1679.76 1553.93 1637.55 1537.17L1696.52 1365.44L1879.64 1433.46H1879.65ZM1619.01 1529.13L1511.4 1482.43L1562.41 1354.19C1564.46 1349 1561.91 1343.12 1556.72 1341.05L1467.77 1305.85L1537.92 1124.95L1758.28 1123.45L1619.02 1529.13H1619.01ZM1805.56 985.76L1769.85 1089.72L1348.61 1092.57C1348.8 1090.26 1348.86 1087.96 1348.86 1085.62C1348.86 1066.52 1342.8 1048.67 1332.5 1034.32L1441.39 885.81C1563.6 920.69 1684.1 952.45 1805.55 985.76H1805.56ZM1779.57 617.29L1670.21 927.7L1450.87 867.48L1563.41 541.41L1779.58 617.29H1779.57ZM1539.88 511.77L1331.89 438.74L1506.91 388.76L1539.88 511.78V511.77ZM1710.19 295.68L1524.08 348.84L1514.47 312.98L1514.43 312.87L1498.41 255L1538.75 241.53C1545.61 239.22 1549.45 231.92 1547.37 224.95L1529.37 164.19L1667.87 145.28C1689.56 220.46 1704.71 275.6 1710.19 295.68ZM1625 1.44C1636.9 39.71 1648.87 80.05 1660.27 119.16L1521.62 138.03L1502.41 73.33L1625 1.44ZM1218.92 105.95L1480.48 94.04L1517.87 220.12L1478.43 233.27L1206.69 291.77C1206.54 289.8 1206.39 287.75 1206.29 285.78C1203.69 242.99 1218.52 188.76 1218.92 105.95ZM1220.12 747.54C1220.6 751.34 1220.96 754.41 1221.44 758.17L1100.69 534.3L1190.36 489.61C1199.46 576.14 1210.22 666.52 1220.12 747.54ZM1175.51 328.86C1178.31 366.21 1181.93 406.64 1186.13 448.59C1184.42 450.67 1183.25 453.15 1182.7 455.78L922.17 585.63L859.44 432.01C908.23 410.25 957.45 388.71 1007.29 367.57L1175.51 328.86ZM834.17 236.78L949.12 213.05L990.78 338.04C940.9 359.21 891.68 380.76 842.86 402.56L769.98 320.99C791.63 291.19 813.21 262.86 834.17 236.79V236.78ZM753.91 343.36L817.08 414.08C813.69 415.59 810.25 417.12 806.85 418.65C788.04 427.12 769.31 435.66 750.61 444.24L711.91 404.11C725.78 383.48 739.8 363.18 753.9 343.35L753.91 343.36ZM700.41 421.28L731.23 453.19C706.62 464.55 682.12 475.98 657.73 487.44C671.6 465.31 685.89 443.19 700.41 421.28ZM749.52 481.83L817.37 637.93L581.53 755.47C567.28 724.84 533.95 649.76 520.37 590.31C595.99 553.65 672.27 517.43 749.53 481.83H749.52ZM444.82 217.35C379.79 257.69 343.23 284.13 324.14 291.58C314.42 295.37 311.87 294.97 308 292.64C304.13 290.3 297.74 282.67 289.67 268.47C284.34 259.02 278.42 249.01 272.22 238.75L423.35 166.74C430.03 182.36 437.18 199.27 444.82 217.35ZM203.64 132.2L372.84 50.44C385 77.9 397.97 107.62 412.72 141.98L258.04 215.67C241.47 189.2 222.87 160.9 203.64 132.19V132.2ZM449.49 473.25C408.08 447.95 335.64 434.29 182.24 436.15C155.58 436.48 134.77 432.61 118.11 423.15C101.42 413.66 87.9502 398.36 76.5602 372.4C71.6702 361.26 66.8502 350.12 61.9602 338.92L247.75 250.41C254.4 261.29 260.67 271.88 266.26 281.73C274.99 297.14 282.44 308.6 294.05 315.65C305.66 322.7 320.26 322.04 333.92 316.68C360.36 306.34 393.7 281 455.7 242.34C471.29 276.81 491.37 313.91 517.59 343.59C511.56 400.41 504.55 458.75 499.84 502.43C499.91 501.66 496.37 508.16 491.52 518.64C491.33 518.31 491.16 517.95 490.97 517.58C482.39 501.88 470.19 485.92 449.49 473.25ZM153.21 772.07C264.84 716.25 376.42 660.41 489.29 605.42C493.75 623.68 499.55 642.6 505.95 661L182.54 834L153.22 772.07H153.21ZM194.06 858.4L515.25 686.52C529.05 722.67 543.07 753.37 551.25 770.54L228.61 931.35L194.06 858.4ZM212.91 976.78L235.36 1024.25L216.45 1128.32L70.2802 1047.84L212.91 976.79V976.78ZM19.7102 1169.94C14.5202 1134.85 11.0502 1111.33 6.42023 1079.68L33.6602 1066.09L273.92 1198.35C295.29 1210.11 312.48 1235.7 321.65 1263.6C328.95 1285.95 330.56 1309.57 328.01 1325.53C227.19 1273.9 128.46 1223.07 29.9002 1174.91C28.9102 1174.29 27.9302 1173.82 26.8702 1173.41C24.5002 1172.24 22.0802 1171.07 19.7102 1169.94ZM44.4702 1336.92L111.8 1322.32C127.39 1319.14 125.56 1296.31 109.68 1295.66C108.47 1295.59 107.27 1295.7 106.1 1295.99L40.5302 1310.24C36.0002 1279.67 31.5102 1249.55 27.0902 1219.79C28.0402 1217.3 28.9902 1214.79 29.9002 1212.38C116.37 1254.85 203.27 1299.46 291.81 1344.78L271.22 1348.65C270.49 1348.54 269.76 1348.54 269.07 1348.54C267.02 1348.65 265.01 1349.2 263.23 1350.15L52.3202 1389.7C49.6602 1371.95 47.1402 1354.79 44.4802 1336.93L44.4702 1336.92ZM31.7602 1798.39C34.9002 1793.87 38.1202 1789.67 41.5102 1785.94C49.6102 1777.07 59.2602 1769.51 73.6802 1762.72C77.6902 1794.63 81.3102 1827.9 84.5602 1862.04L31.7502 1798.39H31.7602ZM57.2502 1422.98L256.54 1385.63C257.71 1445.91 258.73 1532.57 259.53 1607.39L91.1702 1648.06C81.0602 1581.82 69.5102 1505.37 57.2502 1422.99V1422.98ZM97.4202 1688.89C96.4702 1682.67 95.2202 1674.57 94.2402 1668.07L259.76 1628.09C259.94 1645.39 260.24 1669.35 260.38 1681.04L118.49 1713.28C112.57 1714.6 106.98 1716.02 101.62 1717.44C100.26 1707.8 98.8402 1698.24 97.4202 1688.89ZM106.14 1751.07C112.17 1749.39 118.7 1747.7 125.93 1746.07L266.18 1714.22L227.77 1792.62L112.82 1807.63C110.7 1788.38 108.47 1769.5 106.14 1751.07ZM124.14 1928.71C121.4 1894.38 118.37 1860.54 114.97 1827.67L224.92 1813.36L231.02 1932.51C199.32 1929.92 161.89 1929.04 124.14 1928.72V1928.71Z" fill="white"></path></svg>