<svg xmlns="http://www.w3.org/2000/svg" width="209" height="43" viewBox="0 0 209 43" fill="none"><g clip-path="url(#clip0_1589_1498)"><path d="M56.43 30.7615C51.2468 30.7615 47.025 26.5856 47.025 21.4587C47.025 16.3317 51.2468 12.1558 56.43 12.1558H186.846C192.029 12.1558 196.251 16.3317 196.251 21.4587C196.251 26.5856 192.029 30.7615 186.846 30.7615H56.43Z" fill="white"></path><path d="M30.4722 21.624V21.5C30.4722 20.301 30.5558 19.0606 30.7648 17.9029H11.6204V10.874H32.9802C34.9448 6.78077 38.0798 3.26635 42.009 0.826923H0V42.1731H11.6204V27.4538H31.2246C30.7648 25.5519 30.4722 23.65 30.4722 21.624Z" fill="#333333"></path><path d="M57.3077 32.6221C56.9733 32.6635 56.6807 32.6635 56.3463 32.6635C55.8029 32.6635 55.2595 32.6221 54.7161 32.5394C49.1149 31.9192 44.6423 27.1644 44.6423 21.4173C44.6423 15.2567 49.7419 10.2125 56.0119 10.2125H75.6579C71.8541 4.05192 64.7899 0 56.3881 0C43.4301 0 33.7325 9.63365 33.7325 21.5V21.624C33.7325 33.4904 43.3047 43 56.2209 43C64.7481 43 71.8123 38.8654 75.6997 32.6221H57.3077Z" fill="#333333"></path><path d="M120.008 0.826923H108.304V10.2125H120.008V0.826923Z" fill="#333333"></path><path d="M82.5132 32.6221C85.1884 39.651 91.6256 42.9587 100.404 42.9587C109.223 42.9587 115.744 39.7337 118.545 32.6221H82.5132Z" fill="#333333"></path><path d="M92.796 0.826923H81.092V10.2125H92.796V0.826923Z" fill="#333333"></path><path d="M164.149 0.826923H152.654V10.2125H164.149V0.826923Z" fill="#333333"></path><path d="M142.789 10.2538L135.39 0.826923H124.606V10.2538H142.789Z" fill="#333333"></path><path d="M146.467 32.6221L154.033 42.2144H164.149V32.6221H146.467Z" fill="#333333"></path><path d="M136.101 32.6221H124.606V42.2144H136.101V32.6221Z" fill="#333333"></path><path d="M185.383 0.826923H169.165V10.2125H186.846C193.116 10.2125 198.216 15.2567 198.216 21.4173C198.216 27.5779 193.116 32.6221 186.888 32.6221H169.206V42.2144H185.174C200.222 42.2144 209 33.325 209 21.4173V21.2933C208.958 9.34423 200.306 0.826923 185.383 0.826923Z" fill="#333333"></path><path d="M181.914 14.8433C178.904 14.8433 176.438 17.2827 176.438 20.2183C176.438 21.5 176.856 22.699 177.65 23.5673L174.39 26.7923C174.013 27.1644 174.013 27.826 174.39 28.1981C174.599 28.4048 174.808 28.4875 175.1 28.4875C175.393 28.4875 175.602 28.4048 175.811 28.1981L179.155 24.8904C179.949 25.3452 180.91 25.5933 181.872 25.5933C184.881 25.5933 187.348 23.1538 187.348 20.2183C187.348 17.2827 184.923 14.8433 181.914 14.8433ZM181.914 23.65C180.033 23.65 178.486 22.1202 178.486 20.2596C178.486 18.399 180.033 16.8692 181.914 16.8692C183.795 16.8692 185.341 18.399 185.341 20.2596C185.341 22.1202 183.836 23.65 181.914 23.65Z" fill="#8DC63F"></path><path d="M54.9252 23.8154L55.6358 22.9885C56.2628 23.526 56.8898 23.8567 57.7258 23.8567C58.4364 23.8567 58.8962 23.4846 58.8962 23.0298C58.8962 22.575 58.6036 22.3269 57.3914 21.9962C55.9702 21.624 55.176 21.2519 55.176 20.0529C55.176 18.9365 56.1374 18.151 57.4332 18.151C58.3946 18.151 59.1888 18.4404 59.8576 18.9779L59.2306 19.8462C58.6454 19.4327 58.0602 19.1846 57.3914 19.1846C56.7226 19.1846 56.3046 19.5567 56.3046 19.9702C56.3046 20.4663 56.639 20.7144 57.893 21.0038C59.3142 21.376 60.0248 21.8308 60.0248 22.9058C60.0248 24.1048 59.0216 24.849 57.6422 24.849C56.639 24.849 55.7194 24.5183 54.9252 23.8154Z" fill="#888888"></path><path d="M61.9058 18.2337H66.88V19.2673H63.118V21.0038H66.462V22.0375H63.118V23.8154H66.9218V24.8904H61.9476V18.2337H61.9058Z" fill="#888888"></path><path d="M71.2272 18.1923H72.314L75.24 24.8077H73.986L73.3172 23.1952H70.1822L69.5134 24.8077H68.343L71.2272 18.1923ZM72.8992 22.1615L71.7706 19.5567L70.642 22.1615H72.8992Z" fill="#888888"></path><path d="M76.7865 18.2337H79.7543C80.5903 18.2337 81.2592 18.4817 81.6353 18.8952C82.0115 19.2673 82.1788 19.7635 82.1788 20.301C82.1788 21.376 81.5099 22.0375 80.5903 22.2856L82.3878 24.8077H81.0083L79.3781 22.4923H77.9151V24.8077H76.7448L76.7865 18.2337ZM79.7125 21.4587C80.5485 21.4587 81.0919 21.0452 81.0919 20.3837C81.0919 19.6808 80.5903 19.3087 79.7125 19.3087H77.9988V21.5L79.7125 21.4587Z" fill="#888888"></path><path d="M83.7253 21.5C83.7253 19.6394 85.1465 18.1096 87.1529 18.1096C88.3651 18.1096 89.1175 18.5231 89.7863 19.1433L89.0339 20.0115C88.5323 19.5567 87.9053 19.1846 87.1529 19.1846C85.8989 19.1846 84.9793 20.2183 84.9793 21.5C84.9793 22.7817 85.8989 23.8567 87.1529 23.8567C87.9889 23.8567 88.4905 23.526 89.0339 22.9885L89.7863 23.7327C89.0757 24.4356 88.3233 24.8904 87.1111 24.8904C85.1883 24.8904 83.7253 23.4019 83.7253 21.5Z" fill="#888888"></path><path d="M91.5001 18.2337H92.6705V20.9625H95.8473V18.2337H97.0177V24.8077H95.8473V22.0375H92.6705V24.8077H91.5001V18.2337Z" fill="#888888"></path><path d="M103.288 18.2337H104.5L106.506 21.3346L108.513 18.2337H109.725V24.8077H108.555V20.0942L106.465 23.1952H106.506L104.416 20.0942V24.7663H103.288V18.2337Z" fill="#888888"></path><path d="M114.323 18.1923H115.41L118.336 24.8077H117.124L116.455 23.1952H113.278L112.609 24.8077H111.439L114.323 18.1923ZM115.995 22.1615L114.866 19.5567L113.738 22.1615H115.995Z" fill="#888888"></path><path d="M119.924 18.2337H122.892C123.728 18.2337 124.397 18.4817 124.773 18.8952C125.149 19.2673 125.316 19.7635 125.316 20.301C125.316 21.376 124.648 22.0375 123.728 22.2856L125.525 24.8077H124.146L122.516 22.4923H121.053V24.8077H119.882L119.924 18.2337ZM122.767 21.4587C123.603 21.4587 124.146 21.0452 124.146 20.3837C124.146 19.6808 123.644 19.3087 122.767 19.3087H121.053V21.5C121.053 21.4587 122.767 21.4587 122.767 21.4587Z" fill="#888888"></path><path d="M127.281 18.2337H128.451V21.5L131.628 18.2337H133.049L130.291 21.0452L133.175 24.8077H131.754L129.496 21.8308L128.451 22.9058V24.8077H127.281V18.2337Z" fill="#888888"></path><path d="M134.68 18.2337H139.612V19.2673H135.85V21.0038H139.194V22.0375H135.85V23.8154H139.654V24.8904H134.68V18.2337Z" fill="#888888"></path><path d="M143.207 19.2673H141.117V18.1923H146.509V19.2673H144.419V24.7663H143.249V19.2673H143.207Z" fill="#888888"></path><path d="M148.097 18.2337H149.268V24.8077H148.097V18.2337Z" fill="#888888"></path><path d="M151.567 18.2337H152.654L156.207 22.7817V18.2337H157.335V24.8077H156.332L152.654 20.1356V24.8077H151.525L151.567 18.2337Z" fill="#888888"></path><path d="M159.216 21.5C159.216 19.6394 160.637 18.1096 162.644 18.1096C163.772 18.1096 164.525 18.4404 165.235 19.0192L164.483 19.8875C163.981 19.474 163.438 19.1846 162.602 19.1846C161.39 19.1846 160.47 20.2596 160.47 21.5C160.47 22.8644 161.39 23.8567 162.727 23.8567C163.354 23.8567 163.898 23.65 164.358 23.3606V22.1615H162.644V21.0865H165.486V23.8567C164.817 24.3942 163.898 24.8904 162.727 24.8904C160.637 24.8904 159.216 23.4019 159.216 21.5Z" fill="#888888"></path></g><defs><clipPath id="clip0_1589_1498"><rect width="209" height="43" fill="white"></rect></clipPath></defs></svg>