<svg xmlns="http://www.w3.org/2000/svg" width="72" height="72" viewBox="0 0 72 72" fill="none"><path d="M33.2344 45.7892L50.2315 18.8159L57.9382 23.6694L40.9439 50.6456L33.2344 45.7892Z" stroke="white" stroke-width="4" stroke-linecap="round" stroke-linejoin="round"></path><path d="M66.4548 10.1995C66.9607 10.5189 67.3987 10.9349 67.7437 11.4237C68.0887 11.9125 68.334 12.4645 68.4655 13.0481C68.5971 13.6317 68.6124 14.2355 68.5104 14.8251C68.4085 15.4146 68.1914 15.9783 67.8715 16.4838L58.156 31.8972M3.41602 68.5832L11.916 60.0832L17.5827 65.7498L23.2493 60.0832L27.4993 64.3332M50.2453 18.8298L59.9637 3.4165L67.6675 8.27567L57.9492 23.689L50.2453 18.8298ZM31.024 57.8675L40.9492 50.6623L33.2425 45.8032L31.024 57.8675Z" stroke="white" stroke-width="4" stroke-linecap="round" stroke-linejoin="round"></path></svg>