<svg xmlns="http://www.w3.org/2000/svg" width="72" height="72" viewBox="0 0 72 72" fill="none"><path d="M21.9139 5.51807H20.5433C17.4142 5.51807 14.8773 8.05435 14.8766 11.1835L14.8724 30.3662C14.8717 33.4953 12.3349 36.0314 9.20573 36.0314H7.52148" stroke="white" stroke-width="4" stroke-linecap="round" stroke-linejoin="round"></path><path d="M50.0957 5.51807H51.4665C54.5956 5.51807 57.1323 8.05435 57.1331 11.1835L57.1374 30.3662C57.138 33.4953 59.6749 36.0314 62.8041 36.0314H64.4882" stroke="white" stroke-width="4" stroke-linecap="round" stroke-linejoin="round"></path><path d="M21.9139 66.482H20.5433C17.4142 66.482 14.8773 63.9459 14.8766 60.8168L14.8724 41.634C14.8717 38.5049 12.3349 35.9688 9.20573 35.9688H7.52148" stroke="white" stroke-width="4" stroke-linecap="round" stroke-linejoin="round"></path><path d="M50.0957 66.482H51.4665C54.5956 66.482 57.1323 63.9459 57.1331 60.8168L57.1374 41.634C57.138 38.5049 59.6749 35.9688 62.8041 35.9688H64.4882" stroke="white" stroke-width="4" stroke-linecap="round" stroke-linejoin="round"></path></svg>