<svg xmlns="http://www.w3.org/2000/svg" width="72" height="72" viewBox="0 0 72 72" fill="none"><path d="M65.7505 3.50146C66.502 3.50146 67.2227 3.79998 67.754 4.33133C68.2854 4.86268 68.5839 5.58335 68.5839 6.3348L68.5612 27.7831C68.6239 37.2688 65.4467 46.4917 59.5552 53.9262C53.6638 61.3607 45.411 66.5615 36.162 68.6681C26.8958 66.6455 18.5975 61.5208 12.6392 54.1416C6.6809 46.7624 3.41958 37.5707 3.39453 28.0863L3.43136 6.34897C3.43136 5.59752 3.72988 4.87685 4.26123 4.3455C4.79258 3.81414 5.51325 3.51563 6.2647 3.51563L65.7505 3.50146Z" stroke="white" stroke-width="4" stroke-linecap="round" stroke-linejoin="round"></path><path d="M48.7952 43.1116C48.7971 43.4848 48.7252 43.8548 48.5837 44.2002C48.4421 44.5456 48.2337 44.8596 47.9704 45.1242C47.7071 45.3888 47.3942 45.5988 47.0495 45.7421C46.7048 45.8853 46.3352 45.9591 45.9619 45.9591L26.1286 46.0469C25.3796 46.0469 24.6611 45.7504 24.1301 45.2221C23.5992 44.6938 23.299 43.9767 23.2952 43.2277L23.2188 26.5847C23.2188 25.8333 23.5173 25.1126 24.0486 24.5813C24.58 24.0499 25.3006 23.7514 26.0521 23.7514L45.8854 23.6636C46.6344 23.6636 47.3529 23.9601 47.8839 24.4884C48.4148 25.0167 48.715 25.7338 48.7188 26.4827L48.7952 43.1116Z" stroke="white" stroke-width="4" stroke-linecap="round" stroke-linejoin="round"></path><path d="M35.9038 12.0016C34.7875 12.0068 33.6833 12.2318 32.654 12.6637C31.6247 13.0957 30.6906 13.7262 29.905 14.5192C29.1194 15.3122 28.4976 16.2521 28.0753 17.2854C27.6529 18.3186 27.4382 19.425 27.4435 20.5412V23.7316L44.4435 23.6551V20.4647C44.4386 19.3482 44.2139 18.2437 43.7821 17.214C43.3503 16.1844 42.7199 15.25 41.9268 14.4641C41.1338 13.6782 40.1937 13.0562 39.1603 12.6336C38.1268 12.2111 37.0203 11.9963 35.9038 12.0016Z" stroke="white" stroke-width="4" stroke-linecap="round" stroke-linejoin="round"></path><path d="M32.4668 34.8468C32.4668 35.7862 32.8399 36.687 33.5041 37.3512C34.1683 38.0154 35.0692 38.3885 36.0085 38.3885C36.9478 38.3885 37.8486 38.0154 38.5128 37.3512C39.177 36.687 39.5501 35.7862 39.5501 34.8468C39.5501 33.9075 39.177 33.0067 38.5128 32.3425C37.8486 31.6783 36.9478 31.3052 36.0085 31.3052C35.0692 31.3052 34.1683 31.6783 33.5041 32.3425C32.8399 33.0067 32.4668 33.9075 32.4668 34.8468Z" stroke="white" stroke-width="4" stroke-linecap="round" stroke-linejoin="round"></path></svg>