<svg xmlns="http://www.w3.org/2000/svg" width="72" height="72" viewBox="0 0 72 72" fill="none"><path d="M38.8327 43.0832C38.8327 43.0832 44.4993 51.5832 52.9993 51.5832C57.1323 51.5832 61.096 49.9414 64.0184 47.0189C66.9409 44.0965 68.5827 40.1328 68.5827 35.9998C68.5827 31.8669 66.9409 27.9032 64.0184 24.9808C61.096 22.0583 57.1323 20.4165 52.9993 20.4165C38.8327 20.4165 33.166 51.5832 18.9993 51.5832C14.8664 51.5832 10.9027 49.9414 7.98027 47.0189C5.05783 44.0965 3.41602 40.1328 3.41602 35.9998C3.41602 31.8669 5.05783 27.9032 7.98027 24.9808C10.9027 22.0583 14.8664 20.4165 18.9993 20.4165C27.4993 20.4165 31.7493 30.3332 31.7493 30.3332" stroke="white" stroke-width="4" stroke-linecap="round" stroke-linejoin="round"></path></svg>