<svg xmlns="http://www.w3.org/2000/svg" width="72" height="72" viewBox="0 0 72 72" fill="none"><path d="M6.25 34.5832V17.5832C6.25 16.0803 6.84702 14.6389 7.90973 13.5762C8.97243 12.5135 10.4138 11.9165 11.9167 11.9165C13.4196 11.9165 14.8609 12.5135 15.9236 13.5762C16.9863 14.6389 17.5833 16.0803 17.5833 17.5832V34.5832" stroke="white" stroke-width="4" stroke-linecap="round" stroke-linejoin="round"></path><path d="M17.5823 47.6733V54.4167C17.5152 56.2775 17.0819 58.1068 16.3073 59.8L12.539 67.3083C12.199 68.0167 11.6323 68.0167 11.2923 67.3083L7.66562 59.8C6.88363 58.0793 6.45029 56.2208 6.39062 54.3317V47.6733" stroke="white" stroke-width="4" stroke-linecap="round" stroke-linejoin="round"></path><path d="M17.5833 20.3315H6.25" stroke="white" stroke-width="4" stroke-linecap="round" stroke-linejoin="round"></path><path d="M17.1865 57.25H6.64648" stroke="white" stroke-width="4" stroke-linecap="round" stroke-linejoin="round"></path><path d="M44.7549 20.4165L65.3816 56.0882C65.7722 56.7242 65.896 57.4886 65.7263 58.2154C65.5565 58.9422 65.1068 59.5727 64.4749 59.9698L62.7749 60.9899C62.1355 61.3779 61.3686 61.4974 60.6414 61.3222C59.9142 61.1471 59.2858 60.6915 58.8932 60.0548L36.2266 20.3882" stroke="white" stroke-width="4" stroke-linecap="round" stroke-linejoin="round"></path><path d="M63.7383 60.4233L68.5833 68.5833" stroke="white" stroke-width="4" stroke-linecap="round" stroke-linejoin="round"></path><path d="M27.7539 11.9165C27.7539 9.66216 28.6494 7.50016 30.2435 5.9061C31.8376 4.31204 33.9996 3.4165 36.2539 3.4165C38.5082 3.4165 40.6703 4.31204 42.2643 5.9061C43.8584 7.50016 44.7539 9.66216 44.7539 11.9165V20.4165H27.7539V11.9165Z" stroke="white" stroke-width="4" stroke-linecap="round" stroke-linejoin="round"></path><path d="M27.7543 20.4165L22.456 37.5865C22.1354 38.3466 21.6059 39.0003 20.9289 39.4717C20.2519 39.9431 19.4551 40.2129 18.631 40.2498H4.83268C4.45696 40.2498 4.09662 40.3991 3.83095 40.6648C3.56527 40.9304 3.41602 41.2908 3.41602 41.6665V46.2565C3.41602 46.6322 3.56527 46.9926 3.83095 47.2582C4.09662 47.5239 4.45696 47.6732 4.83268 47.6732H24.2127C25.0328 47.6354 25.8259 47.3685 26.502 46.9027C27.1781 46.437 27.7102 45.791 28.0377 45.0382L36.2543 20.4165" stroke="white" stroke-width="4" stroke-linecap="round" stroke-linejoin="round"></path></svg>