<svg xmlns="http://www.w3.org/2000/svg" width="72" height="72" viewBox="0 0 72 72" fill="none"><path d="M45.4797 68.5853V60.0853H48.313C50.5675 60.0853 52.7293 59.1899 54.3237 57.5956C55.9177 56.0016 56.813 53.8398 56.813 51.5853V43.0853H64.7832C65.0053 43.0839 65.2241 43.0303 65.4215 42.9286C65.6193 42.8272 65.7902 42.6804 65.9205 42.5005C66.0511 42.3208 66.1372 42.1129 66.1727 41.8936C66.2078 41.6743 66.1911 41.4496 66.1234 41.2379C60.8137 24.8047 56.9689 7.13886 39.4334 3.93152C35.6067 3.18995 31.668 3.24674 27.8644 4.09835C24.0607 4.94997 20.4738 6.57803 17.3287 8.88051C14.1835 11.183 11.5478 14.1103 9.58668 17.4789C7.62559 20.8475 6.38142 24.5849 5.93211 28.4569C5.48345 33.2179 6.28143 38.0136 8.24765 42.3727C10.2139 46.7321 13.2806 50.5044 17.1464 53.3193V68.5853" stroke="white" stroke-width="4" stroke-linecap="round" stroke-linejoin="round"></path><path d="M25.6465 24.6684C25.6452 23.0795 26.0894 21.522 26.9285 20.1727C27.7677 18.8234 28.9682 17.7363 30.3939 17.0348C31.8196 16.3333 33.4134 16.0455 34.9944 16.204C36.5757 16.3626 38.0805 16.9611 39.3385 17.9317C40.5967 18.9022 41.5575 20.206 42.112 21.6951C42.6665 23.1841 42.7926 24.7988 42.4758 26.3558C42.1593 27.9129 41.4125 29.35 40.3202 30.5043C39.228 31.6583 37.8342 32.4831 36.2969 32.8851C35.6985 33.0163 35.1613 33.3444 34.7714 33.817C34.3815 34.2896 34.1614 34.8792 34.1464 35.4918V40.2518" stroke="white" stroke-width="4" stroke-linecap="round" stroke-linejoin="round"></path><path d="M34.1458 47.3351C33.7548 47.3351 33.4375 47.0181 33.4375 46.6268C33.4375 46.2358 33.7548 45.9185 34.1458 45.9185" stroke="white" stroke-width="4"></path><path d="M34.1465 47.3351C34.5378 47.3351 34.8548 47.0181 34.8548 46.6268C34.8548 46.2358 34.5378 45.9185 34.1465 45.9185" stroke="white" stroke-width="4"></path></svg>