<svg xmlns="http://www.w3.org/2000/svg" width="169" height="24" viewBox="0 0 169 24" fill="none"><g clip-path="url(#clip0_3176_7723)"><mask id="mask0_3176_7723" style="mask-type:luminance" maskUnits="userSpaceOnUse" x="0" y="0" width="169" height="24"><path d="M168.831 0H0V24H168.831V0Z" fill="white"></path></mask><g mask="url(#mask0_3176_7723)"><path d="M153.125 16.0264V0.0795898H145.273V23.9998H160.979V16.0264H153.125Z" fill="#013F33"></path><path d="M139.383 0.0795898H123.678V8.05301H139.383V0.0795898Z" fill="#013F33"></path><path d="M139.383 16.0269H123.678V24.0003H139.383V16.0269Z" fill="#013F33"></path><path d="M119.754 16.0267C121.923 16.0267 123.68 14.2414 123.68 12.0399C123.68 9.83838 121.923 8.05322 119.754 8.05322C117.586 8.05322 115.828 9.83838 115.828 12.0399C115.828 14.2414 117.586 16.0267 119.754 16.0267Z" fill="#013F33"></path><path d="M164.905 24.0003C167.073 24.0003 168.831 22.2151 168.831 20.0136C168.831 17.812 167.073 16.0269 164.905 16.0269C162.737 16.0269 160.979 17.812 160.979 20.0136C160.979 22.2151 162.737 24.0003 164.905 24.0003Z" fill="#013F33"></path><path d="M23.5577 0.0795898H15.7051V8.05301H23.5577V0.0795898Z" fill="#013F33"></path><path d="M7.85261 0.0795898H0V23.9998H7.85261V0.0795898Z" fill="#013F33"></path><path d="M11.7759 16.0267C13.9442 16.0267 15.7022 14.2414 15.7022 12.0399C15.7022 9.83838 13.9442 8.05322 11.7759 8.05322C9.60772 8.05322 7.84961 9.83838 7.84961 12.0399C7.84961 14.2414 9.60772 16.0267 11.7759 16.0267Z" fill="#013F33"></path><path d="M37.2979 0.0795898H29.4453V16.0264H37.2979V0.0795898Z" fill="#013F33"></path><path d="M53.0049 0.0795898H45.1523V23.9998H53.0049V0.0795898Z" fill="#013F33"></path><path d="M41.2271 24.0003C43.3953 24.0003 45.1534 22.2151 45.1534 20.0136C45.1534 17.812 43.3953 16.0269 41.2271 16.0269C39.0589 16.0269 37.3008 17.812 37.3008 20.0136C37.3008 22.2151 39.0589 24.0003 41.2271 24.0003Z" fill="#013F33"></path><path d="M82.4523 8.05322H74.5996V24.0001H82.4523V8.05322Z" fill="#013F33"></path><path d="M66.7452 0.0795898H58.8926V23.9998H66.7452V0.0795898Z" fill="#013F33"></path><path d="M70.6744 8.05301C72.8426 8.05301 74.6006 6.26785 74.6006 4.0663C74.6006 1.86475 72.8426 0.0795898 70.6744 0.0795898C68.5061 0.0795898 66.748 1.86475 66.748 4.0663C66.748 6.26785 68.5061 8.05301 70.6744 8.05301Z" fill="#013F33"></path><path d="M111.899 8.05322H104.047V24.0001H111.899V8.05322Z" fill="#013F33"></path><path d="M96.1963 0.0795898H88.3438V23.9998H96.1963V0.0795898Z" fill="#013F33"></path><path d="M100.12 8.05301C102.288 8.05301 104.046 6.26785 104.046 4.0663C104.046 1.86475 102.288 0.0795898 100.12 0.0795898C97.9515 0.0795898 96.1934 1.86475 96.1934 4.0663C96.1934 6.26785 97.9515 8.05301 100.12 8.05301Z" fill="#013F33"></path></g></g><defs><clipPath id="clip0_3176_7723"><rect width="169" height="24" fill="white"></rect></clipPath></defs></svg>