<?xml version="1.0" encoding="UTF-8" standalone="no"?>
<!DOCTYPE svg PUBLIC "-//W3C//DTD SVG 1.1//EN" "http://www.w3.org/Graphics/SVG/1.1/DTD/svg11.dtd">
<svg xmlns="http://www.w3.org/2000/svg" version="1.1" viewBox="0.00 0.00 160.00 160.00">
<clipPath id="clipping-path-1">
<path d="
  M 31.29 71.07
  Q 26.22 73.00 24.69 77.23
  Q 23.59 80.28 24.89 83.59
  C 26.09 86.67 29.07 88.15 32.57 90.17
  Q 49.97 100.24 59.50 105.69
  Q 65.64 109.19 70.69 104.67
  C 73.57 102.08 74.40 96.96 72.13 93.60
  Q 70.70 91.48 68.51 90.22
  Q 59.84 85.21 51.02 80.12
  Q 58.89 75.75 66.50 71.29
  Q 70.60 68.89 71.71 67.37
  C 77.36 59.64 68.56 49.65 60.09 54.31
  Q 49.94 59.90 31.29 71.07
  Z
  M 109.23 80.18
  Q 99.86 85.54 90.93 91.00
  Q 87.14 93.32 86.83 97.52
  Q 86.46 102.42 90.60 105.40
  Q 94.97 108.55 98.98 106.49
  Q 106.98 102.40 128.58 89.26
  Q 133.55 87.60 135.20 83.67
  Q 136.98 79.43 134.86 75.84
  Q 133.54 73.60 128.61 70.76
  Q 108.78 59.33 100.26 54.49
  C 94.19 51.03 86.84 55.03 86.83 61.87
  Q 86.83 67.16 90.77 69.47
  Q 99.76 74.73 109.23 80.18
  Z"/>
</clipPath>
<g stroke-width="2.00" fill="none" stroke-linecap="butt" clip-path="url(#clipping-path-1)">
<path stroke="#966495" d="
  M 51.02 80.12
  Q 45.34 76.84 39.51 73.48
  Q 35.44 71.14 31.29 71.07"
/>
<path stroke="#85ac2e" d="
  M 128.58 89.26
  Q 124.43 89.01 121.81 87.48
  Q 115.32 83.68 109.23 80.18"
/>
</g>
<path fill="#4286f5" d="
  M 31.29 71.07
  Q 35.44 71.14 39.51 73.48
  Q 45.34 76.84 51.02 80.12
  Q 59.84 85.21 68.51 90.22
  Q 70.70 91.48 72.13 93.60
  C 74.40 96.96 73.57 102.08 70.69 104.67
  Q 65.64 109.19 59.50 105.69
  Q 49.97 100.24 32.57 90.17
  C 29.07 88.15 26.09 86.67 24.89 83.59
  Q 23.59 80.28 24.69 77.23
  Q 26.22 73.00 31.29 71.07
  Z"
/>
<path fill="#109d58" d="
  M 128.58 89.26
  Q 124.43 89.01 121.81 87.48
  Q 115.32 83.68 109.23 80.18
  Q 99.76 74.73 90.77 69.47
  Q 86.83 67.16 86.83 61.87
  C 86.84 55.03 94.19 51.03 100.26 54.49
  Q 108.78 59.33 128.61 70.76
  Q 133.54 73.60 134.86 75.84
  Q 136.98 79.43 135.20 83.67
  Q 133.55 87.60 128.58 89.26
  Z"
/>
<path fill="#ea4235" d="
  M 51.02 80.12
  Q 45.34 76.84 39.51 73.48
  Q 35.44 71.14 31.29 71.07
  Q 49.94 59.90 60.09 54.31
  C 68.56 49.65 77.36 59.64 71.71 67.37
  Q 70.60 68.89 66.50 71.29
  Q 58.89 75.75 51.02 80.12
  Z"
/>
<path fill="#f9bb04" d="
  M 128.58 89.26
  Q 106.98 102.40 98.98 106.49
  Q 94.97 108.55 90.60 105.40
  Q 86.46 102.42 86.83 97.52
  Q 87.14 93.32 90.93 91.00
  Q 99.86 85.54 109.23 80.18
  Q 115.32 83.68 121.81 87.48
  Q 124.43 89.01 128.58 89.26
  Z"
/>
</svg>
