<svg xmlns="http://www.w3.org/2000/svg" width="48" height="48" viewBox="0 0 48 48" fill="none"><path d="M45.5625 34.3125C45.5625 34.8097 45.3649 35.2868 45.0133 35.6383C44.6618 35.9899 44.1847 36.1875 43.6875 36.1875H23.0625L15.5625 43.6875V36.1875H4.3125C3.81521 36.1875 3.33831 35.9899 2.98667 35.6383C2.63504 35.2868 2.4375 34.8097 2.4375 34.3125V6.1875C2.4375 5.69021 2.63504 5.21331 2.98667 4.86167C3.33831 4.51005 3.81521 4.3125 4.3125 4.3125H43.6875C44.1847 4.3125 44.6618 4.51005 45.0133 4.86167C45.3649 5.21331 45.5625 5.69021 45.5625 6.1875V34.3125Z" stroke="#231F20" stroke-width="3" stroke-linecap="round" stroke-linejoin="round"></path><path d="M19.3125 15.5626C19.3127 14.5485 19.5869 13.5533 20.1064 12.6824C20.6257 11.8114 21.3711 11.097 22.2632 10.6149C23.1553 10.1328 24.1613 9.90076 25.1743 9.94347C26.1876 9.98618 27.1704 10.302 28.0189 10.8575C28.8671 11.413 29.5496 12.1875 29.994 13.0991C30.4382 14.0107 30.6278 15.0255 30.5426 16.036C30.4575 17.0465 30.1007 18.0152 29.5101 18.8395C28.9194 19.6639 28.1169 20.3132 27.1875 20.7189C26.5185 21.0109 25.9492 21.4918 25.5495 22.1027C25.1499 22.7134 24.9371 23.4277 24.9375 24.1577V24.9377" stroke="#231F20" stroke-width="3" stroke-linecap="round" stroke-linejoin="round"></path><path d="M24.9375 30.0938C24.6786 30.0938 24.4688 29.8839 24.4688 29.625C24.4688 29.3661 24.6786 29.1562 24.9375 29.1562" stroke="#231F20" stroke-width="3"></path><path d="M24.9375 30.0938C25.1964 30.0938 25.4062 29.8839 25.4062 29.625C25.4062 29.3661 25.1964 29.1562 24.9375 29.1562" stroke="#231F20" stroke-width="3"></path></svg>