<svg xmlns="http://www.w3.org/2000/svg" width="48" height="48" viewBox="0 0 48 48" fill="none"><path d="M21.1875 27.75C21.1875 28.4959 21.4838 29.2113 22.0113 29.7387C22.5387 30.2662 23.2541 30.5625 24 30.5625C24.7459 30.5625 25.4613 30.2662 25.9887 29.7387C26.5162 29.2113 26.8125 28.4959 26.8125 27.75C26.8125 27.0041 26.5162 26.2887 25.9887 25.7613C25.4613 25.2338 24.7459 24.9375 24 24.9375C23.2541 24.9375 22.5387 25.2338 22.0113 25.7613C21.4838 26.2887 21.1875 27.0041 21.1875 27.75Z" stroke="#231F20" stroke-width="3" stroke-linecap="round" stroke-linejoin="round"></path><path d="M25.9883 25.7608L35.2714 16.4814" stroke="#231F20" stroke-width="3" stroke-linecap="round" stroke-linejoin="round"></path><path d="M6.1875 28.6875H9.9375" stroke="#231F20" stroke-width="3" stroke-linecap="round" stroke-linejoin="round"></path><path d="M41.8125 28.6875H38.0625" stroke="#231F20" stroke-width="3" stroke-linecap="round" stroke-linejoin="round"></path><path d="M40.4553 20.9346L36.9922 22.3689" stroke="#231F20" stroke-width="3" stroke-linecap="round" stroke-linejoin="round"></path><path d="M30.8152 11.293L29.3809 14.758" stroke="#231F20" stroke-width="3" stroke-linecap="round" stroke-linejoin="round"></path><path d="M24 9.9375V13.6875" stroke="#231F20" stroke-width="3" stroke-linecap="round" stroke-linejoin="round"></path><path d="M17.1836 11.293L18.618 14.758" stroke="#231F20" stroke-width="3" stroke-linecap="round" stroke-linejoin="round"></path><path d="M11.4062 15.1538L14.0538 17.8069" stroke="#231F20" stroke-width="3" stroke-linecap="round" stroke-linejoin="round"></path><path d="M7.54492 20.9346L11.0062 22.3689" stroke="#231F20" stroke-width="3" stroke-linecap="round" stroke-linejoin="round"></path><path d="M24 6.1875C18.2813 6.1875 12.7968 8.45926 8.75301 12.503C4.70926 16.5468 2.4375 22.0313 2.4375 27.75V34.3125C2.4375 34.8098 2.63504 35.2867 2.98667 35.6383C3.33831 35.99 3.81522 36.1875 4.3125 36.1875H43.6875C44.1848 36.1875 44.6617 35.99 45.0133 35.6383C45.365 35.2867 45.5625 34.8098 45.5625 34.3125V27.75C45.5625 24.9184 45.0048 22.1145 43.9212 19.4984C42.8375 16.8823 41.2493 14.5053 39.247 12.503C37.2447 10.5007 34.8677 8.91246 32.2516 7.82885C29.6355 6.74523 26.8316 6.1875 24 6.1875Z" stroke="#231F20" stroke-width="3" stroke-linecap="round" stroke-linejoin="round"></path></svg>