<svg xmlns="http://www.w3.org/2000/svg" width="48" height="48" viewBox="0 0 48 48" fill="none"><path d="M40.5945 37.0123L28.332 39.7311L29.157 27.2061" stroke="#231F20" stroke-width="3" stroke-linecap="round" stroke-linejoin="round"></path><path d="M28.332 39.7313C38.4008 30.975 40.2008 15.3938 31.5008 5.25" stroke="#231F20" stroke-width="3" stroke-linecap="round" stroke-linejoin="round"></path><path d="M16.5 43.6875H18.375C18.6221 43.6827 18.8578 43.5824 19.0326 43.4076C19.2074 43.2328 19.3077 42.9971 19.3125 42.75V40.875" stroke="#231F20" stroke-width="3" stroke-linecap="round" stroke-linejoin="round"></path><path d="M10.875 43.6875H9C8.75286 43.6827 8.51718 43.5824 8.3424 43.4076C8.16761 43.2328 8.0673 42.9971 8.0625 42.75V40.875" stroke="#231F20" stroke-width="3" stroke-linecap="round" stroke-linejoin="round"></path><path d="M10.875 32.4375H9C8.75136 32.4375 8.5129 32.5363 8.33709 32.7121C8.16127 32.8879 8.0625 33.1264 8.0625 33.375V35.25" stroke="#231F20" stroke-width="3" stroke-linecap="round" stroke-linejoin="round"></path><path d="M16.5 32.4375H18.375C18.6236 32.4375 18.8621 32.5363 19.0379 32.7121C19.2137 32.8879 19.3125 33.1264 19.3125 33.375V35.25" stroke="#231F20" stroke-width="3" stroke-linecap="round" stroke-linejoin="round"></path><path d="M16.5 28.6875H18.375C18.6221 28.6827 18.8578 28.5824 19.0326 28.4076C19.2074 28.2328 19.3077 27.9971 19.3125 27.75V25.875" stroke="#231F20" stroke-width="3" stroke-linecap="round" stroke-linejoin="round"></path><path d="M10.875 28.6875H9C8.75286 28.6827 8.51718 28.5824 8.3424 28.4076C8.16761 28.2328 8.0673 27.9971 8.0625 27.75V25.875" stroke="#231F20" stroke-width="3" stroke-linecap="round" stroke-linejoin="round"></path><path d="M10.875 17.4375H9C8.75136 17.4375 8.5129 17.5363 8.33709 17.7121C8.16127 17.8879 8.0625 18.1264 8.0625 18.375V20.25" stroke="#231F20" stroke-width="3" stroke-linecap="round" stroke-linejoin="round"></path><path d="M16.5 17.4375H18.375C18.6236 17.4375 18.8621 17.5363 19.0379 17.7121C19.2137 17.8879 19.3125 18.1264 19.3125 18.375V20.25" stroke="#231F20" stroke-width="3" stroke-linecap="round" stroke-linejoin="round"></path><path d="M9 2.4375H18.375C18.375 2.4375 19.3125 2.4375 19.3125 3.375V12.75C19.3125 12.75 19.3125 13.6875 18.375 13.6875H9C9 13.6875 8.0625 13.6875 8.0625 12.75V3.375C8.0625 3.375 8.0625 2.4375 9 2.4375Z" stroke="#231F20" stroke-width="3" stroke-linecap="round" stroke-linejoin="round"></path></svg>