<svg xmlns="http://www.w3.org/2000/svg" width="50" height="50" viewBox="0 0 50 50" fill="none"><g clip-path="url(#clip0_1589_833)"><path d="M4.6875 12.5C4.6875 13.7432 5.18135 14.9355 6.06044 15.8146C6.93952 16.6936 8.13179 17.1875 9.375 17.1875C10.6182 17.1875 11.8105 16.6936 12.6896 15.8146C13.5686 14.9355 14.0625 13.7432 14.0625 12.5C14.0625 11.2568 13.5686 10.0645 12.6896 9.18544C11.8105 8.30635 10.6182 7.8125 9.375 7.8125C8.13179 7.8125 6.93952 8.30635 6.06044 9.18544C5.18135 10.0645 4.6875 11.2568 4.6875 12.5Z" stroke="#231F20" stroke-width="3" stroke-linecap="round" stroke-linejoin="round"></path><path d="M9.375 20.3125C7.303 20.3125 5.31585 21.1356 3.85073 22.6006C2.3856 24.0658 1.5625 26.0529 1.5625 28.125V32.8125H4.6875L6.25 45.3125H12.5" stroke="#231F20" stroke-width="3" stroke-linecap="round" stroke-linejoin="round"></path><path d="M35.9375 12.5C35.9375 13.7432 36.4315 14.9355 37.3104 15.8146C38.1896 16.6936 39.3819 17.1875 40.625 17.1875C41.8681 17.1875 43.0604 16.6936 43.9396 15.8146C44.8185 14.9355 45.3125 13.7432 45.3125 12.5C45.3125 11.2568 44.8185 10.0645 43.9396 9.18544C43.0604 8.30635 41.8681 7.8125 40.625 7.8125C39.3819 7.8125 38.1896 8.30635 37.3104 9.18544C36.4315 10.0645 35.9375 11.2568 35.9375 12.5Z" stroke="#231F20" stroke-width="3" stroke-linecap="round" stroke-linejoin="round"></path><path d="M40.625 20.3125C42.6971 20.3125 44.6842 21.1356 46.1494 22.6006C47.6144 24.0658 48.4375 26.0529 48.4375 28.125V32.8125H45.3125L43.75 45.3125H37.5" stroke="#231F20" stroke-width="3" stroke-linecap="round" stroke-linejoin="round"></path><path d="M18.75 7.8125C18.75 9.4701 19.4085 11.0598 20.5806 12.2319C21.7527 13.404 23.3425 14.0625 25 14.0625C26.6575 14.0625 28.2473 13.404 29.4194 12.2319C30.5915 11.0598 31.25 9.4701 31.25 7.8125C31.25 6.1549 30.5915 4.56519 29.4194 3.39308C28.2473 2.22098 26.6575 1.5625 25 1.5625C23.3425 1.5625 21.7527 2.22098 20.5806 3.39308C19.4085 4.56519 18.75 6.1549 18.75 7.8125Z" stroke="#231F20" stroke-width="3" stroke-linecap="round" stroke-linejoin="round"></path><path d="M35.9375 28.125C35.9375 25.2242 34.7852 22.4423 32.734 20.391C30.6827 18.3398 27.9008 17.1875 25 17.1875C22.0992 17.1875 19.3172 18.3398 17.266 20.391C15.2148 22.4423 14.0625 25.2242 14.0625 28.125V32.8125H18.75L20.3125 48.4375H29.6875L31.25 32.8125H35.9375V28.125Z" stroke="#231F20" stroke-width="3" stroke-linecap="round" stroke-linejoin="round"></path></g><defs><clipPath id="clip0_1589_833"><rect width="50" height="50" fill="white"></rect></clipPath></defs></svg>