<svg xmlns="http://www.w3.org/2000/svg" width="50" height="50" viewBox="0 0 50 50" fill="none"><path d="M44.043 38.1836H23.5352L11.8164 46.9727V38.1836H5.95703C5.18004 38.1836 4.43484 37.875 3.88543 37.3256C3.33601 36.7762 3.02734 36.0309 3.02734 35.2539V5.95703C3.02734 5.18004 3.33601 4.43484 3.88543 3.88543C4.43484 3.33601 5.18004 3.02734 5.95703 3.02734H44.043C44.8199 3.02734 45.5652 3.33601 46.1146 3.88543C46.6641 4.43484 46.9727 5.18004 46.9727 5.95703V35.2539C46.9727 36.0309 46.6641 36.7762 46.1146 37.3256C45.5652 37.875 44.8199 38.1836 44.043 38.1836Z" stroke="white" stroke-width="3" stroke-linecap="round" stroke-linejoin="round"></path><path d="M20.6055 14.7462C20.6057 13.672 20.9012 12.6186 21.4596 11.701C22.0182 10.7834 22.818 10.037 23.7721 9.54336C24.726 9.04971 25.7975 8.8278 26.8689 8.9019C27.9406 8.97598 28.9713 9.34323 29.8482 9.96348C30.7252 10.5837 31.4148 11.4331 31.8416 12.4188C32.2686 13.4045 32.4162 14.4886 32.2686 15.5526C32.1209 16.6165 31.6838 17.6195 31.0047 18.4517C30.3256 19.284 29.4307 19.9135 28.418 20.2716C27.8469 20.4735 27.3523 20.8475 27.0025 21.3422C26.6527 21.8367 26.4648 22.4276 26.4648 23.0334V23.5354" stroke="white" stroke-width="3" stroke-linecap="round" stroke-linejoin="round"></path><path d="M26.4648 30.8594C26.0604 30.8594 25.7324 30.5314 25.7324 30.127C25.7324 29.7225 26.0604 29.3945 26.4648 29.3945" stroke="white" stroke-width="3"></path><path d="M26.4648 30.8594C26.8693 30.8594 27.1973 30.5314 27.1973 30.127C27.1973 29.7225 26.8693 29.3945 26.4648 29.3945" stroke="white" stroke-width="3"></path></svg>