<svg xmlns="http://www.w3.org/2000/svg" width="50" height="50" viewBox="0 0 50 50" fill="none"><path d="M4.01042 6.27289L20.3125 16.4062V7.56039C20.3125 7.27564 20.3903 6.99633 20.5375 6.75258C20.6847 6.50885 20.8956 6.30995 21.1477 6.17741C21.3996 6.04487 21.6831 5.9837 21.9673 6.00054C22.2517 6.01735 22.5258 6.11154 22.7604 6.27289L47.7604 23.7124C47.9692 23.8561 48.14 24.0482 48.2579 24.2726C48.376 24.497 48.4377 24.7465 48.4377 24.9999C48.4377 25.2534 48.376 25.503 48.2579 25.7274C48.14 25.9515 47.9692 26.1438 47.7604 26.2874L22.7604 43.727C22.5258 43.8884 22.2517 43.9826 21.9673 43.9995C21.6831 44.0163 21.3996 43.9551 21.1477 43.8226C20.8956 43.6901 20.6847 43.4911 20.5375 43.2474C20.3903 43.0036 20.3125 42.7242 20.3125 42.4395V33.5936L4.01042 43.727C3.77581 43.8884 3.50156 43.9826 3.21733 43.9995C2.9331 44.0163 2.64967 43.9551 2.39767 43.8226C2.14565 43.6901 1.93466 43.4911 1.78747 43.2474C1.64028 43.0036 1.56249 42.7242 1.5625 42.4395V7.56039C1.56249 7.27564 1.64028 6.99633 1.78747 6.75258C1.93466 6.50885 2.14565 6.30995 2.39767 6.17741C2.64967 6.04487 2.9331 5.9837 3.21733 6.00054C3.50156 6.01735 3.77581 6.11154 4.01042 6.27289Z" stroke="#231F20" stroke-width="3" stroke-linecap="round" stroke-linejoin="round"></path></svg>