<svg xmlns="http://www.w3.org/2000/svg" width="50" height="50" viewBox="0 0 50 50" fill="none"><path d="M3.02734 46.9727H46.9727" stroke="white" stroke-width="3" stroke-linecap="round" stroke-linejoin="round"></path><path d="M13.2812 33.3008H7.42187C7.03494 33.3059 6.66529 33.4617 6.39166 33.7354C6.11805 34.009 5.96209 34.3787 5.95703 34.7656V46.9727H14.7461V34.7656C14.741 34.3787 14.5851 34.009 14.3115 33.7354C14.0378 33.4617 13.6682 33.3059 13.2812 33.3008Z" stroke="white" stroke-width="3" stroke-linecap="round" stroke-linejoin="round"></path><path d="M27.9297 25.4883H22.0703C21.6834 25.4934 21.3137 25.6492 21.0401 25.9229C20.7665 26.1965 20.6105 26.5662 20.6055 26.9531V46.9727H29.3945V26.9531C29.3895 26.5662 29.2336 26.1965 28.96 25.9229C28.6863 25.6492 28.3166 25.4934 27.9297 25.4883Z" stroke="white" stroke-width="3" stroke-linecap="round" stroke-linejoin="round"></path><path d="M42.5781 17.6758H36.7187C36.3318 17.6808 35.9621 17.8368 35.6885 18.1104C35.4148 18.384 35.259 18.7537 35.2539 19.1406V46.9727H44.043V19.1406C44.0379 18.7537 43.882 18.384 43.6084 18.1104C43.3348 17.8368 42.965 17.6808 42.5781 17.6758Z" stroke="white" stroke-width="3" stroke-linecap="round" stroke-linejoin="round"></path><path d="M9.72665 19.6094L41.1135 5.35156" stroke="white" stroke-width="3" stroke-linecap="round" stroke-linejoin="round"></path><path d="M38.7889 11.582L41.1131 5.35156L34.9022 3.02734" stroke="white" stroke-width="3" stroke-linecap="round" stroke-linejoin="round"></path></svg>