<svg xmlns="http://www.w3.org/2000/svg" width="50" height="50" viewBox="0 0 50 50" fill="none"><path d="M15.2905 3.98779H14.3457C12.1887 3.98779 10.4399 5.73615 10.4394 7.89318L10.4365 21.1165C10.4361 23.2735 8.68731 25.0218 6.53028 25.0218H5.36926" stroke="white" stroke-width="3" stroke-linecap="round" stroke-linejoin="round"></path><path d="M34.717 3.98779H35.6619C37.8189 3.98779 39.5676 5.73615 39.5682 7.89318L39.5711 21.1165C39.5715 23.2735 41.3203 25.0218 43.4773 25.0218H44.6383" stroke="white" stroke-width="3" stroke-linecap="round" stroke-linejoin="round"></path><path d="M15.2905 46.0125H14.3457C12.1887 46.0125 10.4399 44.2643 10.4394 42.1072L10.4365 28.8838C10.4361 26.7268 8.68731 24.9785 6.53028 24.9785H5.36926" stroke="white" stroke-width="3" stroke-linecap="round" stroke-linejoin="round"></path><path d="M34.717 46.0125H35.6619C37.8189 46.0125 39.5676 44.2643 39.5682 42.1072L39.5711 28.8838C39.5715 26.7268 41.3203 24.9785 43.4773 24.9785H44.6383" stroke="white" stroke-width="3" stroke-linecap="round" stroke-linejoin="round"></path></svg>