<svg xmlns="http://www.w3.org/2000/svg" width="50" height="50" viewBox="0 0 50 50" fill="none"><path d="M25 9.71484V3.02734" stroke="white" stroke-width="3" stroke-linecap="round" stroke-linejoin="round"></path><path d="M25 46.9727V40.2852" stroke="white" stroke-width="3" stroke-linecap="round" stroke-linejoin="round"></path><path d="M9.71484 25H3.02734" stroke="white" stroke-width="3" stroke-linecap="round" stroke-linejoin="round"></path><path d="M46.9727 25H40.2852" stroke="white" stroke-width="3" stroke-linecap="round" stroke-linejoin="round"></path><path d="M20.5897 19.3672C20.5897 20.5368 21.0544 21.6587 21.8814 22.4856C22.7086 23.3128 23.8303 23.7774 24.9998 23.7774C26.1695 23.7774 27.2912 23.3128 28.1184 22.4856C28.9453 21.6587 29.41 20.5368 29.41 19.3672C29.41 18.1975 28.9453 17.0758 28.1184 16.2487C27.2912 15.4217 26.1695 14.957 24.9998 14.957C23.8303 14.957 22.7086 15.4217 21.8814 16.2487C21.0544 17.0758 20.5897 18.1975 20.5897 19.3672Z" stroke="white" stroke-width="3" stroke-linecap="round" stroke-linejoin="round"></path><path d="M17.1269 34.0645C17.1269 31.9764 17.9564 29.9738 19.4329 28.4973C20.9094 27.0209 22.9119 26.1914 25 26.1914C27.0881 26.1914 29.0906 27.0209 30.567 28.4973C32.0435 29.9738 32.873 31.9764 32.873 34.0645H17.1269Z" stroke="white" stroke-width="3" stroke-linecap="round" stroke-linejoin="round"></path><path d="M6.41028 25C6.41028 29.9211 8.36514 34.6404 11.8448 38.1201C15.3245 41.5998 20.044 43.5547 24.965 43.5547C29.8859 43.5547 34.6055 41.5998 38.0852 38.1201C41.5648 34.6404 43.5197 29.9211 43.5197 25C43.5197 20.079 41.5648 15.3595 38.0852 11.8799C34.6055 8.40018 29.8859 6.44531 24.965 6.44531C20.044 6.44531 15.3245 8.40018 11.8448 11.8799C8.36514 15.3595 6.41028 20.079 6.41028 25Z" stroke="white" stroke-width="3" stroke-linecap="round" stroke-linejoin="round"></path></svg>